<svg id="svg" version="1.1" xmlns="http://www.w3.org/2000/svg" xmlns:xlink="http://www.w3.org/1999/xlink" width="400" height="400" viewBox="0, 0, 400,400"><g id="svgg"><path id="path0" d="M244.940 100.229 C 229.590 102.807,220.785 114.740,223.786 128.898 C 225.854 138.660,231.515 142.900,246.056 145.579 C 258.092 147.796,261.618 150.041,261.661 155.515 C 261.710 161.832,255.737 165.350,247.200 164.032 C 242.247 163.267,230.125 158.630,228.220 156.771 C 227.054 155.633,226.372 156.457,223.181 162.862 C 219.424 170.405,219.388 169.938,223.886 172.020 C 251.507 184.802,278.658 177.412,281.594 156.314 C 283.189 144.852,277.706 136.208,266.600 132.676 C 265.500 132.326,261.794 131.313,258.365 130.425 C 246.514 127.356,244.400 125.989,244.400 121.394 C 244.400 113.558,255.061 111.685,267.800 117.282 C 269.780 118.152,271.670 118.894,272.000 118.932 C 272.401 118.977,273.614 116.947,275.659 112.809 C 279.175 105.693,279.356 106.562,273.876 104.230 C 264.170 100.100,254.045 98.700,244.940 100.229 M48.662 101.100 C 45.219 107.886,41.565 122.087,39.626 136.215 C 38.018 147.934,39.692 170.908,43.020 182.800 C 43.359 184.010,43.998 186.332,44.439 187.960 C 45.138 190.534,46.732 194.317,46.782 193.520 C 46.792 193.367,46.520 191.117,46.177 188.520 C 45.031 179.832,45.574 161.012,47.179 153.800 C 47.375 152.920,47.754 151.120,48.021 149.800 C 51.362 133.289,60.449 111.972,68.428 101.923 C 69.072 101.111,69.600 100.346,69.600 100.223 C 69.600 100.101,65.015 100.000,59.410 100.000 L 49.221 100.000 48.662 101.100 M109.000 100.404 C 106.529 100.719,103.748 101.314,99.800 102.375 C 95.993 103.398,84.329 108.760,82.898 110.146 C 82.499 110.533,82.763 111.225,84.198 113.554 C 85.189 115.161,86.000 116.561,86.000 116.666 C 86.000 116.770,86.501 117.608,87.112 118.528 C 87.724 119.448,88.452 120.650,88.730 121.200 C 89.008 121.750,89.549 122.612,89.931 123.115 L 90.626 124.030 94.813 121.608 C 111.645 111.872,121.620 113.834,121.129 126.786 L 121.000 130.172 114.916 130.272 C 91.363 130.663,80.966 138.554,81.019 156.000 C 81.065 171.058,89.504 178.800,105.871 178.800 C 114.356 178.800,118.191 177.546,123.989 172.877 L 126.178 171.114 126.789 172.057 C 128.774 175.121,134.330 179.600,136.146 179.600 C 136.720 179.600,137.922 178.530,139.800 176.348 C 143.176 172.428,142.990 172.639,145.109 170.291 L 146.818 168.398 144.488 166.099 C 143.207 164.835,141.718 162.900,141.179 161.800 L 140.200 159.800 140.200 138.800 C 140.200 116.127,140.163 115.618,138.195 111.328 C 134.390 103.033,122.703 98.659,109.000 100.404 M316.907 100.413 C 309.408 101.201,298.631 105.104,291.100 109.760 C 290.063 110.401,290.111 110.522,293.853 116.804 C 298.309 124.282,298.237 124.200,299.565 123.326 C 313.186 114.361,326.206 113.132,328.372 120.605 C 329.147 123.277,329.409 129.424,328.765 129.822 C 328.465 130.007,325.785 130.208,322.809 130.267 C 299.454 130.734,288.404 138.955,288.401 155.865 C 288.397 170.065,296.844 178.127,312.325 178.698 C 321.263 179.027,326.478 177.481,331.491 173.015 L 333.720 171.029 334.745 172.415 C 336.483 174.764,339.593 177.485,342.013 178.775 L 344.324 180.006 348.262 175.506 C 350.428 173.031,352.718 170.414,353.352 169.691 L 354.504 168.376 352.039 165.809 C 347.549 161.134,347.801 162.806,347.794 137.600 C 347.787 113.557,347.873 114.471,345.185 109.774 C 341.039 102.527,330.375 98.997,316.907 100.413 M158.913 101.761 C 150.267 103.280,151.032 102.727,151.565 107.068 C 151.853 109.422,152.000 126.744,152.005 159.000 C 152.009 185.620,152.147 207.612,152.313 207.872 C 152.538 208.226,153.212 208.160,155.006 207.607 C 156.323 207.202,160.370 206.088,164.000 205.132 L 170.600 203.393 170.600 188.896 L 170.600 174.400 171.476 174.400 C 171.958 174.400,172.462 174.577,172.596 174.793 C 174.102 177.230,189.906 178.387,195.200 176.448 C 203.440 173.430,210.206 166.765,213.552 158.370 C 217.884 147.502,217.699 127.145,213.179 117.304 C 212.750 116.372,212.400 115.509,212.400 115.386 C 212.400 114.028,207.111 107.838,203.800 105.322 C 195.234 98.813,179.076 98.758,171.724 105.213 C 169.918 106.799,169.515 106.612,168.980 103.940 C 168.142 99.756,169.119 99.967,158.913 101.761 M187.802 116.262 C 193.419 118.177,195.605 124.324,195.597 138.190 C 195.587 154.139,192.638 160.737,184.772 162.406 C 180.816 163.246,174.759 161.525,171.700 158.694 L 170.800 157.861 170.800 139.777 L 170.800 121.693 172.386 120.261 C 176.633 116.424,183.243 114.709,187.802 116.262 M120.914 143.900 C 121.003 144.065,120.991 147.599,120.887 151.754 L 120.700 159.309 119.307 160.850 C 112.221 168.694,101.373 164.868,101.442 154.549 C 101.484 148.306,103.634 145.782,110.400 144.034 C 112.110 143.592,120.690 143.483,120.914 143.900 M328.581 144.294 C 328.727 144.676,328.720 148.376,328.565 152.516 L 328.282 160.043 326.613 161.411 C 318.270 168.247,309.197 164.696,309.213 154.600 C 309.224 146.918,313.527 143.695,323.857 143.628 C 327.735 143.604,328.349 143.690,328.581 144.294 M20.249 156.800 C 17.631 168.898,17.056 174.685,17.027 189.200 C 17.001 202.207,17.074 203.369,18.419 211.200 C 25.416 251.956,49.694 281.021,89.200 295.939 C 118.865 307.141,159.417 305.058,192.509 290.632 L 197.400 288.500 197.505 273.050 C 197.576 262.536,197.476 257.600,197.193 257.600 C 196.963 257.600,195.656 258.072,194.288 258.648 C 152.753 276.146,105.715 275.457,74.200 256.888 C 73.540 256.499,71.740 255.437,70.200 254.529 C 48.521 241.739,30.560 216.481,24.366 190.077 C 21.992 179.955,20.449 166.689,20.890 160.200 C 21.127 156.722,20.726 154.596,20.249 156.800 M215.627 190.568 C 214.405 192.040,208.057 206.588,208.514 206.870 C 209.128 207.250,209.505 206.856,210.772 204.510 L 211.804 202.600 215.602 202.522 C 220.841 202.414,220.983 202.464,222.030 204.781 C 222.942 206.798,223.872 207.599,224.227 206.673 C 224.336 206.390,223.592 204.368,222.574 202.179 C 221.557 199.991,219.985 196.580,219.082 194.600 C 216.848 189.703,216.592 189.405,215.627 190.568 M294.597 190.724 C 288.701 193.484,287.906 202.344,293.237 205.872 C 296.366 207.943,302.658 207.308,304.008 204.785 C 304.663 203.562,303.756 203.475,301.870 204.580 C 295.677 208.209,288.940 201.999,292.003 195.483 C 293.745 191.777,298.676 190.433,301.957 192.769 C 302.873 193.421,303.388 193.572,303.684 193.276 C 305.708 191.252,298.058 189.103,294.597 190.724 M314.435 190.558 C 313.964 191.125,307.718 204.784,307.309 206.140 C 306.828 207.733,308.597 206.582,309.477 204.728 C 310.524 202.522,310.651 202.478,315.800 202.547 L 319.800 202.600 320.800 204.596 C 321.686 206.366,323.200 207.538,323.200 206.455 C 323.200 205.898,317.038 192.223,316.234 190.996 C 315.490 189.861,315.094 189.764,314.435 190.558 M228.667 190.667 C 227.962 191.371,228.380 206.862,229.100 206.724 C 229.724 206.604,229.812 205.930,229.910 200.495 C 230.045 193.074,230.169 192.997,233.600 198.200 C 234.978 200.290,236.238 202.000,236.400 202.000 C 236.562 202.000,237.822 200.290,239.200 198.200 C 242.662 192.949,242.800 193.041,242.800 200.600 C 242.800 206.555,242.832 206.800,243.608 206.800 C 244.396 206.800,244.414 206.597,244.308 198.700 C 244.171 188.438,243.999 188.280,239.819 194.583 C 236.371 199.784,236.481 199.750,234.182 196.272 C 230.653 190.934,229.535 189.798,228.667 190.667 M249.517 198.089 C 249.453 202.330,249.461 206.015,249.535 206.279 C 249.663 206.734,259.789 207.234,261.117 206.851 C 262.918 206.331,260.825 205.779,256.368 205.600 L 251.400 205.400 251.400 202.400 L 251.400 199.400 255.929 199.287 C 262.010 199.134,261.991 198.288,255.900 198.000 C 250.891 197.764,250.981 197.826,251.137 194.678 C 251.291 191.572,250.830 191.834,256.532 191.600 C 263.353 191.320,262.659 190.628,255.418 190.489 L 249.634 190.379 249.517 198.089 M265.900 190.630 C 265.433 191.103,265.530 206.800,266.000 206.800 C 266.220 206.800,266.535 206.802,266.700 206.805 C 266.865 206.808,267.090 205.413,267.200 203.705 L 267.400 200.600 269.857 200.482 L 272.314 200.364 274.857 203.652 C 276.256 205.460,277.625 207.013,277.900 207.103 C 278.501 207.300,279.072 206.029,278.548 205.660 C 277.801 205.132,274.800 201.079,274.800 200.596 C 274.800 200.322,275.361 199.865,276.047 199.580 C 278.986 198.363,279.689 194.558,277.431 192.094 L 276.062 190.600 271.131 190.463 C 268.419 190.388,266.065 190.463,265.900 190.630 M283.600 198.571 C 283.600 205.572,283.688 206.800,284.192 206.800 C 285.527 206.800,285.633 190.732,284.300 190.476 C 283.652 190.351,283.600 190.949,283.600 198.571 M327.516 198.204 C 327.390 206.685,327.399 206.800,328.233 206.800 C 328.699 206.800,328.800 205.655,328.800 200.400 C 328.800 192.345,328.626 192.350,334.795 200.226 C 339.578 206.332,340.612 207.351,341.147 206.485 C 341.835 205.373,341.423 190.619,340.700 190.478 C 340.058 190.353,340.000 190.851,340.000 196.547 C 340.000 204.109,339.796 204.367,336.901 200.465 C 334.850 197.701,329.438 191.000,329.019 190.706 C 327.748 189.815,327.633 190.391,327.516 198.204 M273.944 191.849 C 280.075 193.075,277.667 198.918,271.116 198.715 L 267.400 198.600 267.282 195.663 C 267.118 191.596,268.558 190.772,273.944 191.849 M316.356 194.600 C 316.820 195.590,317.580 197.209,318.043 198.199 C 319.304 200.887,319.008 201.200,315.200 201.200 C 311.367 201.200,311.091 200.892,312.410 198.099 C 312.903 197.054,313.636 195.435,314.039 194.500 C 314.964 192.353,315.309 192.368,316.356 194.600 M218.341 196.311 C 220.381 201.010,220.392 200.978,216.662 201.118 C 212.223 201.284,212.131 201.127,214.137 196.785 C 216.192 192.336,216.595 192.290,218.341 196.311 M209.391 218.111 C 208.795 220.536,209.389 233.788,210.100 233.924 C 210.708 234.041,210.800 233.722,210.800 231.509 C 210.800 228.286,211.101 228.000,214.496 228.000 C 220.187 228.000,223.336 224.061,220.918 219.968 C 219.508 217.582,209.902 216.034,209.391 218.111 M229.600 217.984 C 220.148 223.035,225.983 237.334,236.048 233.783 C 242.841 231.386,243.593 221.486,237.237 218.131 C 235.016 216.958,231.640 216.893,229.600 217.984 M261.672 217.555 C 260.795 218.097,261.204 233.752,262.100 233.924 C 262.748 234.049,262.800 233.452,262.800 225.853 C 262.800 217.839,262.677 216.934,261.672 217.555 M267.436 217.498 C 266.570 218.364,267.348 218.800,269.757 218.800 C 272.956 218.800,272.800 218.376,272.800 227.062 C 272.800 233.511,272.855 234.048,273.500 233.923 C 274.140 233.798,274.187 233.220,274.052 227.156 C 273.869 218.932,273.919 218.800,277.243 218.800 C 279.328 218.800,279.640 218.704,279.524 218.100 C 279.389 217.400,268.096 216.838,267.436 217.498 M284.275 217.458 C 283.480 218.254,283.987 234.000,284.808 234.000 C 285.596 234.000,285.614 233.797,285.508 225.733 C 285.406 217.940,285.197 216.536,284.275 217.458 M295.612 217.645 C 287.169 221.015,289.424 234.372,298.440 234.396 C 301.050 234.403,304.800 232.620,304.800 231.373 C 304.800 230.510,303.810 230.681,302.118 231.836 C 299.078 233.912,294.292 232.509,292.656 229.062 C 289.555 222.526,296.663 215.873,302.595 219.760 C 303.878 220.601,304.895 220.587,304.729 219.732 C 304.367 217.861,298.459 216.509,295.612 217.645 M314.591 218.417 C 313.752 220.041,307.600 233.601,307.600 233.829 C 307.600 234.917,309.228 233.603,310.112 231.800 L 311.191 229.600 315.800 229.600 L 320.409 229.600 321.488 231.800 C 322.197 233.247,322.812 234.000,323.283 234.000 C 324.293 234.000,324.322 234.092,320.982 226.794 C 316.112 216.152,315.904 215.879,314.591 218.417 M328.275 217.458 C 328.124 217.610,328.000 221.398,328.000 225.878 L 328.000 234.023 333.401 233.911 C 340.178 233.772,340.801 233.078,334.400 232.800 L 329.800 232.600 329.600 225.033 C 329.413 217.941,329.171 216.562,328.275 217.458 M246.306 218.100 C 246.208 218.375,246.180 220.130,246.244 222.000 C 246.308 223.870,246.369 227.335,246.380 229.700 L 246.400 234.000 251.800 234.000 C 256.333 234.000,257.200 233.904,257.200 233.400 C 257.200 232.904,256.453 232.800,252.880 232.800 C 247.261 232.800,247.600 233.319,247.600 224.720 C 247.600 218.901,247.498 217.600,247.043 217.600 C 246.736 217.600,246.405 217.825,246.306 218.100 M217.358 219.184 C 221.090 220.603,220.779 225.302,216.882 226.384 C 214.977 226.913,212.560 226.914,211.574 226.386 C 210.651 225.892,210.414 220.146,211.280 219.280 C 211.854 218.706,215.932 218.642,217.358 219.184 M236.835 219.712 C 242.469 223.509,239.948 232.768,233.274 232.793 C 226.560 232.819,223.944 223.522,229.589 219.700 C 231.454 218.437,234.952 218.443,236.835 219.712 M317.291 222.300 C 317.856 223.565,318.644 225.286,319.044 226.124 C 319.985 228.097,319.567 228.386,315.749 228.394 C 311.902 228.402,311.736 228.124,313.362 224.393 C 314.080 222.747,314.781 221.085,314.921 220.700 C 315.392 219.402,316.259 219.987,317.291 222.300 M230.376 244.547 C 226.380 245.622,224.189 248.641,224.239 253.000 C 224.321 260.035,231.428 263.769,237.387 259.909 C 240.165 258.110,238.967 257.411,235.832 259.002 C 229.085 262.425,222.708 254.665,227.186 248.483 C 229.333 245.519,232.395 244.879,235.951 246.650 C 238.274 247.808,239.893 247.434,238.200 246.130 C 236.047 244.474,232.965 243.850,230.376 244.547 M291.000 244.365 C 281.960 246.631,282.366 259.411,291.540 261.392 C 293.807 261.881,299.181 259.874,299.195 258.533 C 299.204 257.655,298.200 257.728,296.707 258.712 C 292.691 261.361,287.636 259.391,286.369 254.684 C 284.747 248.660,290.741 243.670,296.121 246.566 C 298.417 247.802,298.800 247.840,298.800 246.836 C 298.800 245.322,293.669 243.697,291.000 244.365 M211.027 245.179 C 207.386 247.579,208.602 252.007,213.224 253.178 C 218.260 254.454,219.816 255.833,218.581 257.924 C 217.223 260.223,214.560 260.621,211.368 259.002 C 208.331 257.461,206.887 258.228,209.700 259.888 C 215.156 263.106,220.939 260.898,220.409 255.800 C 220.231 254.091,218.771 253.078,214.880 251.966 C 210.752 250.785,209.554 249.183,211.217 247.069 C 212.426 245.532,214.420 245.295,217.034 246.379 C 219.205 247.279,220.137 247.224,219.752 246.218 C 219.100 244.519,213.110 243.805,211.027 245.179 M243.043 245.033 C 242.664 246.021,242.770 260.133,243.161 260.751 C 244.133 262.285,244.400 260.520,244.400 252.576 C 244.400 244.588,244.021 242.483,243.043 245.033 M250.195 244.808 C 249.808 245.434,249.933 260.493,250.329 260.889 C 250.976 261.536,261.400 261.076,261.400 260.400 C 261.400 259.906,260.551 259.780,256.615 259.687 C 251.169 259.557,251.215 259.586,251.206 256.349 C 251.198 253.315,251.490 253.135,256.270 253.231 C 259.394 253.294,260.200 253.197,260.200 252.755 C 260.200 252.324,259.263 252.174,256.014 252.085 C 251.312 251.956,251.215 251.896,251.206 249.133 C 251.196 245.922,251.060 246.000,256.672 246.000 C 261.206 246.000,261.646 245.936,261.524 245.300 C 261.363 244.461,250.696 243.997,250.195 244.808 M266.267 244.667 C 265.463 245.470,265.994 260.800,266.826 260.800 C 267.628 260.800,267.649 260.624,267.567 254.700 C 267.456 246.765,267.378 246.764,273.747 254.811 C 276.551 258.354,279.059 261.180,279.322 261.093 C 280.114 260.829,279.994 244.600,279.200 244.600 C 278.693 244.600,278.597 245.560,278.583 250.772 C 278.571 254.863,278.418 256.994,278.129 257.090 C 277.889 257.170,275.396 254.348,272.590 250.818 C 267.829 244.831,266.954 243.979,266.267 244.667 M303.477 244.656 C 302.832 245.302,303.167 260.702,303.833 260.957 C 304.851 261.348,314.143 261.224,314.797 260.811 C 316.037 260.026,314.487 259.625,309.794 259.514 L 305.000 259.400 304.880 256.636 C 304.731 253.199,304.794 253.154,309.502 253.267 C 311.894 253.325,313.368 253.192,313.669 252.891 C 314.364 252.196,313.565 252.028,309.000 251.906 L 305.000 251.800 304.883 248.912 L 304.765 246.025 309.683 245.912 C 313.737 245.820,314.600 245.695,314.600 245.200 C 314.600 244.562,304.086 244.048,303.477 244.656 M230.600 271.761 C 225.627 273.956,227.039 279.064,233.033 280.560 C 236.767 281.492,237.600 282.079,237.600 283.781 C 237.600 287.119,233.903 288.045,229.638 285.775 C 228.307 285.067,227.759 284.942,227.539 285.299 C 226.804 286.487,230.595 288.400,233.684 288.400 C 240.474 288.400,241.412 281.238,234.863 279.400 C 229.915 278.011,228.702 276.967,229.579 274.850 C 230.440 272.772,233.268 272.214,236.200 273.543 C 238.105 274.407,238.975 274.275,238.404 273.208 C 237.553 271.618,232.885 270.753,230.600 271.761 M245.469 272.018 C 241.712 274.062,242.298 278.714,246.471 279.976 C 247.422 280.263,249.041 280.756,250.068 281.071 C 253.587 282.149,254.047 285.127,250.924 286.609 C 249.219 287.418,247.311 287.153,244.942 285.778 C 243.037 284.672,241.685 285.229,243.121 286.529 C 246.827 289.882,254.012 288.522,254.636 284.350 C 255.048 281.601,253.460 280.265,248.051 278.809 C 246.169 278.303,244.400 276.838,244.400 275.787 C 244.400 273.497,248.718 271.981,251.200 273.400 C 252.456 274.118,254.127 274.182,253.901 273.504 C 253.272 271.616,247.935 270.676,245.469 272.018 M264.397 271.574 C 255.038 274.421,256.790 288.347,266.513 288.391 C 273.607 288.424,277.509 280.811,273.500 274.760 C 271.795 272.187,267.419 270.655,264.397 271.574 M284.200 271.796 C 278.635 273.748,277.014 281.720,281.309 286.015 C 284.383 289.089,290.743 289.160,293.242 286.150 C 294.255 284.928,292.781 284.778,290.856 285.905 C 283.939 289.959,277.327 281.759,282.149 275.106 C 283.876 272.722,288.584 272.137,291.178 273.984 C 292.179 274.697,292.544 274.778,293.010 274.392 C 295.127 272.635,287.890 270.502,284.200 271.796 M348.600 271.961 C 340.847 275.562,342.436 287.506,350.775 288.307 C 356.180 288.827,360.416 285.041,360.391 279.713 C 360.363 273.621,354.013 269.447,348.600 271.961 M214.953 272.875 C 212.191 278.158,208.103 287.816,208.521 288.075 C 209.128 288.450,209.508 288.050,210.771 285.710 L 211.801 283.800 216.299 283.687 L 220.796 283.574 221.875 285.774 C 222.468 286.983,223.196 288.066,223.492 288.180 C 224.593 288.603,224.386 287.249,222.848 283.972 C 221.978 282.117,220.381 278.620,219.299 276.200 C 217.058 271.189,216.185 270.521,214.953 272.875 M297.875 271.858 C 297.080 272.653,297.587 288.000,298.408 288.000 C 299.196 288.000,299.214 287.797,299.108 279.933 C 299.006 272.334,298.793 270.940,297.875 271.858 M310.384 272.300 C 308.632 275.202,303.276 287.800,303.686 288.053 C 304.398 288.493,304.807 288.087,305.702 286.048 C 306.777 283.600,306.745 283.613,311.704 283.606 L 316.009 283.600 317.088 285.800 C 318.648 288.981,320.221 289.100,318.849 285.933 C 313.001 272.441,311.631 270.235,310.384 272.300 M320.400 272.372 C 320.400 273.071,320.716 273.177,323.100 273.282 L 325.800 273.400 326.000 280.800 C 326.168 287.022,326.295 288.200,326.800 288.200 C 327.308 288.200,327.417 287.054,327.509 280.718 L 327.618 273.236 330.309 273.118 C 332.382 273.027,333.000 272.862,333.000 272.400 C 333.000 271.897,331.984 271.782,326.700 271.690 C 320.651 271.584,320.400 271.611,320.400 272.372 M337.406 272.100 C 336.819 273.835,337.431 287.794,338.100 287.923 C 338.748 288.049,338.800 287.452,338.800 279.829 C 338.800 272.706,338.718 271.600,338.187 271.600 C 337.851 271.600,337.499 271.825,337.406 272.100 M364.990 272.082 C 364.442 273.509,364.998 288.200,365.600 288.200 C 366.100 288.200,366.233 287.137,366.400 281.833 C 366.616 274.972,366.842 274.365,368.391 276.493 C 372.643 282.337,377.704 288.335,378.216 288.138 C 379.191 287.764,379.076 271.488,378.100 271.676 C 377.474 271.796,377.388 272.481,377.290 278.135 C 377.157 285.761,377.580 285.771,371.457 277.992 C 366.830 272.112,365.459 270.860,364.990 272.082 M269.606 273.541 C 274.253 276.013,274.705 283.083,270.390 285.806 C 265.474 288.910,260.000 285.683,260.000 279.680 C 260.000 274.503,265.185 271.190,269.606 273.541 M354.274 273.227 C 358.022 274.647,359.863 279.549,358.011 283.178 C 354.610 289.846,345.196 287.299,345.201 279.713 C 345.205 274.928,349.902 271.570,354.274 273.227 M218.341 277.516 C 220.406 282.265,220.443 282.179,216.300 282.316 C 212.066 282.455,212.075 282.480,214.392 277.466 C 216.290 273.357,216.534 273.361,218.341 277.516 M313.762 278.330 C 315.534 282.408,315.539 282.400,311.376 282.400 C 307.278 282.400,307.274 282.387,309.609 277.331 C 311.503 273.233,311.552 273.245,313.762 278.330 " stroke="none" fill="#2d538e" fill-rule="evenodd"></path><path id="path1" d="M0.000 200.000 L 0.000 400.000 200.000 400.000 L 400.000 400.000 400.000 200.000 L 400.000 0.000 200.000 0.000 L 0.000 0.000 0.000 200.000 M70.196 99.593 C 70.329 99.809,69.104 102.014,67.473 104.493 C 63.310 110.822,56.400 123.636,56.400 125.028 C 56.400 125.127,56.052 125.972,55.627 126.904 C 54.962 128.364,52.387 135.664,51.220 139.400 C 46.949 153.071,45.126 171.569,46.627 186.000 C 46.959 189.190,47.334 192.970,47.461 194.400 L 47.691 197.000 46.869 196.200 C 46.096 195.449,42.800 185.503,42.800 183.924 C 42.800 183.552,42.639 183.148,42.442 183.026 C 42.245 182.905,41.991 182.129,41.877 181.303 C 41.763 180.476,41.300 178.140,40.847 176.111 C 38.916 167.453,38.076 156.516,38.474 145.200 C 38.813 135.568,39.803 128.229,41.983 119.200 C 43.404 113.310,46.022 105.326,47.819 101.397 L 48.823 99.200 59.388 99.200 C 65.872 99.200,70.047 99.352,70.196 99.593 M120.600 99.768 C 131.152 101.198,137.727 106.087,140.119 114.282 C 140.407 115.267,140.639 123.525,140.781 137.800 C 141.033 163.079,140.816 161.631,144.954 165.703 C 147.688 168.393,147.689 168.452,145.089 171.236 C 143.940 172.466,141.661 175.031,140.024 176.936 C 138.388 178.841,136.757 180.400,136.401 180.400 C 134.604 180.400,128.407 175.646,126.885 173.100 C 126.048 171.699,126.114 171.685,123.857 173.728 C 121.469 175.890,117.820 177.795,114.000 178.876 C 110.849 179.767,100.418 179.505,96.604 178.438 C 85.115 175.226,79.243 166.290,80.149 153.399 C 81.248 137.760,91.672 130.443,114.000 129.638 L 120.600 129.400 120.497 126.200 C 120.346 121.463,119.769 119.431,118.179 118.035 C 114.323 114.650,104.648 116.480,94.516 122.510 C 90.212 125.073,90.493 125.231,85.936 117.674 C 81.146 109.732,81.177 110.198,85.298 107.977 C 98.379 100.928,109.715 98.292,120.600 99.768 M261.869 99.776 C 267.933 100.844,279.200 105.252,279.200 106.557 C 279.200 107.482,273.172 119.525,272.600 119.745 C 272.325 119.850,271.672 119.716,271.150 119.446 C 256.939 112.098,242.780 113.870,245.142 122.700 C 246.081 126.211,247.707 127.051,259.200 129.966 C 272.259 133.277,276.812 136.012,280.247 142.606 C 284.918 151.576,282.040 165.216,274.200 171.262 C 273.540 171.771,272.648 172.508,272.219 172.899 C 268.613 176.184,258.037 179.175,249.967 179.192 C 243.004 179.207,233.104 176.878,225.497 173.438 C 224.344 172.916,222.536 172.101,221.480 171.626 C 220.424 171.151,219.469 170.524,219.357 170.232 C 219.092 169.541,225.911 155.600,226.514 155.600 C 226.768 155.600,229.052 156.618,231.588 157.863 C 234.125 159.108,236.605 160.278,237.100 160.463 C 237.595 160.648,238.405 160.976,238.900 161.191 C 250.647 166.288,262.229 162.831,260.926 154.615 C 260.185 149.938,256.641 148.069,244.600 146.005 C 233.628 144.124,226.603 139.507,224.205 132.600 C 218.653 116.609,227.140 103.082,245.000 99.455 C 247.123 99.024,258.866 99.248,261.869 99.776 M328.405 99.776 C 338.830 101.164,345.421 106.052,347.854 114.200 C 348.503 116.374,348.572 118.618,348.585 138.000 L 348.600 159.400 349.541 161.481 C 350.091 162.696,351.380 164.411,352.641 165.603 C 353.828 166.726,354.797 167.950,354.793 168.323 C 354.784 169.274,344.912 180.401,344.081 180.396 C 342.257 180.386,336.043 175.556,334.346 172.830 L 333.742 171.859 331.166 174.044 C 328.709 176.128,325.789 177.598,321.600 178.858 C 319.057 179.623,308.141 179.520,305.200 178.703 C 293.215 175.374,287.957 168.375,287.949 155.742 C 287.940 138.535,298.159 130.568,321.400 129.664 L 328.200 129.400 328.118 125.331 C 327.973 118.146,326.495 116.596,319.800 116.606 C 314.204 116.614,307.979 118.782,301.292 123.054 C 298.449 124.870,297.913 124.797,296.434 122.394 C 295.755 121.291,295.200 120.283,295.200 120.156 C 295.200 120.028,294.861 119.446,294.447 118.862 C 294.033 118.278,293.337 117.170,292.901 116.400 C 292.466 115.630,291.522 114.063,290.805 112.917 C 289.163 110.293,289.267 110.063,293.070 107.947 C 305.539 101.010,317.282 98.294,328.405 99.776 M168.208 99.906 C 168.897 100.402,169.600 102.366,169.600 103.795 C 169.600 105.660,170.056 105.786,171.798 104.402 C 180.044 97.848,195.094 98.129,204.399 105.009 C 214.800 112.699,219.638 130.202,216.618 149.213 C 213.041 171.723,193.722 183.995,174.174 176.175 C 172.834 175.639,171.616 175.200,171.469 175.200 C 171.321 175.200,171.200 181.658,171.200 189.550 L 171.200 203.900 166.700 205.127 C 151.816 209.184,151.596 209.228,151.609 208.144 C 151.828 189.217,151.212 109.046,150.827 106.454 C 150.247 102.542,150.227 102.575,153.600 102.007 C 155.030 101.767,158.540 101.150,161.400 100.637 C 167.511 99.541,167.677 99.524,168.208 99.906 M179.200 117.166 C 176.360 118.100,173.877 119.467,172.599 120.801 L 171.583 121.861 171.583 139.779 C 171.582 160.182,171.211 158.281,175.600 160.355 C 182.717 163.718,189.696 161.680,192.569 155.400 C 195.460 149.079,195.511 127.943,192.650 121.475 C 190.677 117.014,185.100 115.227,179.200 117.166 M111.685 144.585 C 105.218 145.604,102.583 148.063,102.127 153.507 C 101.399 162.186,108.015 166.823,115.456 162.848 C 119.970 160.436,119.904 160.595,120.063 151.800 L 120.200 144.200 117.600 144.132 C 116.170 144.094,113.508 144.298,111.685 144.585 M320.134 144.394 C 310.717 145.807,307.260 151.857,311.049 160.291 C 313.263 165.220,321.437 165.429,326.509 160.687 L 328.018 159.276 327.909 151.738 L 327.800 144.200 325.000 144.142 C 323.460 144.110,321.270 144.224,320.134 144.394 M68.824 154.900 C 70.752 200.556,109.503 230.590,157.200 223.395 C 167.402 221.856,181.344 217.447,190.000 213.023 C 192.744 211.621,195.836 209.902,196.286 209.529 C 197.832 208.245,198.000 209.187,198.000 219.160 L 198.000 228.746 196.900 229.528 C 195.593 230.457,185.579 235.320,183.121 236.219 C 112.896 261.895,57.239 223.026,66.212 154.574 C 67.409 145.444,68.430 145.572,68.824 154.900 M21.607 159.500 C 21.666 215.549,54.338 257.248,106.772 268.199 C 130.348 273.122,160.502 270.464,185.700 261.242 C 186.965 260.779,189.035 260.024,190.300 259.564 C 191.565 259.104,193.569 258.285,194.753 257.745 C 198.454 256.056,198.184 254.974,198.316 272.005 C 198.461 290.789,199.301 288.496,191.000 291.982 C 190.560 292.167,189.570 292.594,188.800 292.930 C 183.478 295.256,170.685 299.073,162.400 300.808 C 93.249 315.285,30.919 278.384,18.473 215.600 C 15.539 200.802,15.296 180.988,17.863 166.000 C 18.184 164.130,18.602 161.700,18.792 160.600 C 19.101 158.818,19.606 156.358,20.211 153.700 C 20.323 153.205,20.682 152.800,21.008 152.800 C 21.507 152.800,21.601 153.853,21.607 159.500 M303.205 190.956 C 306.161 192.912,304.470 195.097,301.446 193.229 C 298.765 191.572,294.582 192.343,293.003 194.786 C 288.975 201.016,295.947 207.995,302.006 203.796 C 303.717 202.610,304.800 202.861,304.800 204.443 C 304.800 207.769,296.559 208.857,292.634 206.050 C 283.204 199.304,293.533 184.556,303.205 190.956 M218.442 191.822 C 219.016 192.934,220.162 195.364,220.989 197.222 C 221.816 199.080,223.102 201.921,223.847 203.536 C 225.564 207.262,225.571 207.687,223.913 207.525 C 222.798 207.417,222.492 207.119,221.623 205.300 L 220.621 203.200 216.302 203.200 L 211.983 203.200 211.511 204.300 C 210.586 206.457,209.568 207.600,208.573 207.600 C 207.528 207.600,207.269 206.630,207.958 205.295 C 208.406 204.425,210.783 199.275,211.232 198.200 C 215.133 188.866,216.360 187.782,218.442 191.822 M230.480 190.100 C 230.829 190.375,232.230 192.274,233.594 194.321 C 236.539 198.739,236.263 198.764,239.698 193.773 C 242.024 190.392,242.594 189.800,243.516 189.800 L 244.600 189.800 244.708 198.510 C 244.804 206.307,244.746 207.246,244.153 207.473 C 242.510 208.104,242.210 207.209,242.000 201.053 L 241.800 195.190 239.600 198.635 C 238.390 200.529,237.104 202.237,236.742 202.431 C 235.955 202.852,235.914 202.807,233.065 198.428 C 230.456 194.416,230.355 194.528,230.423 201.362 C 230.481 207.094,230.381 207.600,229.200 207.600 C 228.025 207.600,227.990 207.350,227.948 198.664 C 227.903 189.270,228.192 188.293,230.480 190.100 M261.535 189.951 C 261.829 190.138,262.009 190.720,261.935 191.245 C 261.802 192.185,261.723 192.202,256.905 192.312 C 251.436 192.438,251.368 192.481,251.671 195.645 L 251.800 197.000 256.093 197.113 C 259.772 197.211,260.442 197.332,260.778 197.958 C 261.602 199.499,260.542 199.973,256.000 200.091 L 251.800 200.200 251.677 202.131 C 251.490 205.054,251.753 205.200,257.202 205.200 C 262.052 205.200,263.310 205.730,261.874 207.166 C 261.114 207.926,249.341 207.743,249.043 206.967 C 248.561 205.711,248.773 190.587,249.280 190.080 C 249.842 189.518,260.672 189.404,261.535 189.951 M276.257 190.469 C 280.378 192.406,280.552 197.870,276.559 199.921 L 275.237 200.600 277.419 203.482 C 279.929 206.799,280.126 207.600,278.436 207.600 C 277.265 207.600,276.734 207.126,274.400 204.005 C 272.343 201.253,272.215 201.155,270.527 201.035 C 268.194 200.869,268.054 201.050,267.919 204.412 C 267.798 207.452,266.841 208.601,265.525 207.285 C 265.130 206.890,265.047 190.571,265.436 189.941 C 265.925 189.150,274.324 189.560,276.257 190.469 M285.120 190.080 C 285.685 190.645,285.803 206.260,285.249 207.135 C 285.062 207.429,284.480 207.609,283.955 207.535 L 283.000 207.400 282.892 199.051 C 282.773 189.858,283.195 188.155,285.120 190.080 M317.566 192.100 C 318.188 193.475,319.151 195.590,319.704 196.800 C 324.349 206.957,324.553 207.604,323.100 207.594 C 321.766 207.585,321.318 207.169,320.397 205.086 L 319.563 203.200 315.178 203.200 L 310.794 203.200 310.150 204.807 C 309.150 207.307,306.400 208.894,306.400 206.971 C 306.400 206.512,311.064 195.969,313.422 191.100 C 314.645 188.574,316.131 188.933,317.566 192.100 M329.279 190.100 C 330.048 190.709,336.561 198.840,337.748 200.673 C 339.066 202.711,339.171 202.403,339.289 196.143 C 339.408 189.879,339.811 188.681,341.366 189.972 C 342.138 190.613,342.336 206.945,341.577 207.414 C 340.503 208.078,339.117 206.807,334.800 201.202 C 332.270 197.917,330.070 195.223,329.911 195.215 C 329.752 195.207,329.572 197.836,329.511 201.057 C 329.394 207.216,329.108 208.111,327.454 207.476 C 326.613 207.154,326.451 190.909,327.280 190.080 C 327.894 189.466,328.485 189.472,329.279 190.100 M268.267 192.667 C 267.672 193.262,267.982 197.907,268.633 198.157 C 273.416 199.993,279.512 195.230,275.220 193.010 C 274.030 192.395,268.797 192.136,268.267 192.667 M214.636 197.059 C 212.922 200.669,212.868 200.560,216.298 200.436 C 219.675 200.313,219.552 200.567,217.954 197.013 C 216.297 193.326,216.410 193.324,214.636 197.059 M314.541 194.700 C 314.413 195.085,313.798 196.525,313.175 197.900 C 312.552 199.275,312.213 200.411,312.421 200.424 C 318.251 200.785,318.390 200.677,316.780 197.014 C 315.431 193.943,314.957 193.454,314.541 194.700 M237.734 217.740 C 248.007 223.760,239.377 239.270,228.798 233.799 C 226.905 232.820,224.975 230.199,224.409 227.837 C 222.544 220.065,230.899 213.734,237.734 217.740 M303.468 217.819 C 305.534 219.030,305.757 219.360,305.204 220.392 C 304.696 221.341,303.714 221.412,302.612 220.579 C 297.041 216.367,289.858 222.993,293.416 229.063 C 295.231 232.160,299.506 233.082,302.272 230.972 C 304.415 229.338,306.659 230.548,304.983 232.435 C 301.158 236.739,293.117 235.272,290.547 229.800 C 286.641 221.483,295.578 213.195,303.468 217.819 M219.041 217.620 C 225.348 220.673,222.519 228.128,214.814 228.755 L 211.800 229.000 211.677 231.386 C 211.514 234.572,210.006 235.820,208.706 233.846 C 208.183 233.052,208.343 217.817,208.880 217.280 C 209.747 216.413,217.051 216.657,219.041 217.620 M247.767 217.043 C 248.312 217.252,248.400 218.302,248.400 224.630 L 248.400 231.974 252.857 232.087 C 257.701 232.210,259.206 232.899,257.461 234.196 C 256.832 234.663,249.823 234.820,246.100 234.450 C 245.560 234.396,245.335 217.599,245.867 217.067 C 246.199 216.735,246.940 216.725,247.767 217.043 M263.508 225.399 C 263.624 234.318,263.453 235.161,261.661 234.502 C 260.540 234.089,260.485 233.709,260.427 225.946 C 260.364 217.630,260.565 216.672,262.327 216.876 L 263.400 217.000 263.508 225.399 M280.335 217.955 C 280.517 219.239,279.830 219.587,277.100 219.594 L 274.800 219.600 274.800 226.973 C 274.800 234.052,274.767 234.356,273.981 234.606 C 272.197 235.172,272.000 234.393,272.000 226.770 L 272.000 219.638 269.542 219.519 C 266.953 219.394,266.025 218.755,266.528 217.445 C 266.753 216.856,267.546 216.793,273.491 216.890 L 280.200 217.000 280.335 217.955 M286.157 217.433 C 286.291 217.781,286.400 221.629,286.400 225.984 C 286.400 234.731,286.227 235.396,284.188 234.467 L 283.200 234.017 283.200 225.889 C 283.200 220.100,283.338 217.622,283.680 217.280 C 284.366 216.594,285.871 216.687,286.157 217.433 M317.894 218.800 C 319.063 221.155,322.800 229.256,322.800 229.436 C 322.800 229.513,323.266 230.596,323.836 231.842 C 324.886 234.137,324.770 234.776,323.300 234.794 C 322.634 234.802,321.200 233.341,321.200 232.654 C 321.200 230.394,319.041 229.872,311.733 230.368 C 311.476 230.386,310.951 231.226,310.565 232.236 C 309.809 234.216,308.356 235.194,307.377 234.381 C 306.820 233.919,306.898 233.677,309.306 228.400 C 309.859 227.190,310.711 225.300,311.200 224.200 C 314.563 216.640,314.516 216.711,315.966 216.880 C 316.740 216.970,317.225 217.453,317.894 218.800 M330.000 224.400 L 330.200 231.800 334.800 232.000 L 339.400 232.200 339.523 233.266 C 339.610 234.013,339.430 234.400,338.923 234.561 C 337.962 234.866,328.210 234.577,327.644 234.227 C 326.974 233.813,327.029 217.338,327.700 217.058 C 329.694 216.223,329.787 216.521,330.000 224.400 M231.283 219.465 C 228.603 220.036,226.413 224.363,227.256 227.419 C 229.213 234.507,239.333 233.150,239.333 225.800 C 239.333 221.451,235.632 218.538,231.283 219.465 M211.683 222.700 L 211.800 225.800 214.667 225.776 C 218.545 225.743,220.092 224.331,219.164 221.670 C 218.632 220.142,217.323 219.600,214.164 219.600 L 211.566 219.600 211.683 222.700 M315.255 221.645 C 315.053 222.170,314.434 223.621,313.879 224.869 C 312.672 227.587,312.681 227.600,315.800 227.600 C 318.974 227.600,318.944 227.664,317.426 224.173 C 315.868 220.590,315.725 220.423,315.255 221.645 M218.621 244.659 C 221.638 246.223,220.560 248.579,217.469 247.175 C 214.373 245.769,211.200 246.497,211.200 248.613 C 211.200 249.834,212.397 250.635,215.388 251.414 C 221.968 253.128,223.386 258.615,217.972 261.414 C 215.057 262.922,208.364 261.081,208.077 258.692 C 207.894 257.171,209.124 256.975,211.243 258.186 C 213.493 259.472,216.263 259.560,217.525 258.384 C 219.323 256.709,218.317 255.191,214.788 254.256 C 209.832 252.944,208.400 251.749,208.400 248.928 C 208.400 244.413,213.800 242.158,218.621 244.659 M236.584 244.434 C 238.644 245.403,239.319 246.092,239.133 247.038 C 238.868 248.384,237.799 248.596,236.379 247.585 C 231.821 244.339,226.070 247.667,226.533 253.283 C 226.958 258.441,232.023 261.009,236.192 258.180 C 237.982 256.965,238.957 257.041,239.117 258.408 C 239.215 259.241,238.874 259.628,237.098 260.705 C 229.354 265.398,220.662 257.089,224.514 248.675 C 225.490 246.544,225.947 246.117,229.400 244.112 C 230.747 243.330,234.602 243.503,236.584 244.434 M244.786 244.374 C 245.470 245.652,245.329 260.473,244.623 261.424 C 244.162 262.045,243.902 262.112,243.323 261.757 C 242.433 261.211,241.993 245.172,242.841 244.151 C 243.486 243.374,244.301 243.467,244.786 244.374 M261.724 244.073 C 262.163 244.304,262.400 244.798,262.324 245.327 C 262.206 246.159,261.963 246.209,257.200 246.400 L 252.200 246.600 252.080 248.900 L 251.960 251.200 255.904 251.200 C 260.290 251.200,261.492 251.650,261.026 253.117 C 260.774 253.912,260.447 253.982,256.477 254.087 L 252.200 254.200 252.200 256.600 L 252.200 259.000 257.195 259.200 C 262.268 259.403,263.460 259.900,262.112 261.248 C 261.672 261.688,250.366 261.873,249.683 261.452 C 248.811 260.912,249.015 244.543,249.900 244.048 C 250.796 243.547,260.765 243.568,261.724 244.073 M268.331 244.700 C 268.920 245.305,269.887 246.430,270.480 247.200 C 271.073 247.970,272.963 250.374,274.679 252.542 L 277.800 256.485 277.911 250.570 C 278.037 243.860,278.501 242.558,280.171 244.229 C 280.701 244.758,280.800 246.113,280.800 252.800 C 280.800 263.949,280.038 264.362,274.200 256.377 C 268.645 248.780,268.143 248.476,268.109 252.700 C 268.095 254.405,268.065 257.105,268.042 258.700 L 268.000 261.600 266.843 261.600 C 265.243 261.600,265.200 261.367,265.200 252.596 C 265.200 243.328,265.720 242.015,268.331 244.700 M297.228 244.700 C 299.679 245.941,300.273 247.212,298.776 248.013 C 298.045 248.404,297.702 248.330,296.658 247.558 C 292.492 244.478,286.765 247.529,286.820 252.800 C 286.875 258.107,292.309 261.086,296.611 258.166 C 298.965 256.569,301.096 257.748,299.143 259.567 C 295.541 262.923,289.188 262.673,286.137 259.055 C 279.537 251.228,288.139 240.096,297.228 244.700 M314.900 244.053 C 315.359 244.299,315.601 244.791,315.524 245.327 C 315.405 246.163,315.191 246.205,310.505 246.312 C 305.036 246.438,304.968 246.481,305.271 249.645 L 305.400 251.000 309.000 251.100 C 314.008 251.239,314.479 251.382,314.325 252.714 L 314.200 253.800 310.014 253.915 C 305.421 254.041,305.216 254.150,305.206 256.467 C 305.195 259.219,305.158 259.200,310.596 259.200 C 315.743 259.200,316.992 259.751,315.418 261.325 C 314.670 262.073,303.242 261.909,302.757 261.144 C 302.068 260.056,302.323 244.483,303.037 244.083 C 303.922 243.588,313.983 243.562,314.900 244.053 M218.601 273.400 C 219.262 274.720,220.326 276.970,220.965 278.400 C 221.604 279.830,222.825 282.517,223.678 284.372 C 225.383 288.077,225.388 288.921,223.702 288.727 C 222.831 288.627,222.391 288.181,221.600 286.600 L 220.600 284.600 216.292 284.486 L 211.984 284.373 211.092 286.401 C 210.221 288.380,209.032 289.238,208.023 288.614 C 207.326 288.183,207.524 287.376,209.173 283.907 C 210.039 282.088,211.670 278.534,212.799 276.008 C 215.615 269.706,216.543 269.288,218.601 273.400 M237.215 271.700 C 239.166 272.684,239.700 273.845,238.578 274.666 C 237.980 275.103,237.656 275.053,236.512 274.346 C 234.713 273.234,231.402 273.183,230.591 274.254 C 229.186 276.108,230.132 277.405,233.600 278.380 C 238.410 279.732,240.000 281.096,240.000 283.871 C 240.000 287.059,236.248 289.670,232.533 289.067 C 229.850 288.631,226.800 286.871,226.800 285.758 C 226.800 284.344,227.885 284.116,229.684 285.151 C 233.289 287.226,237.746 286.230,237.061 283.502 C 236.794 282.438,235.725 281.907,231.620 280.800 C 226.638 279.457,225.556 274.123,229.747 271.567 C 231.529 270.480,234.916 270.540,237.215 271.700 M252.609 271.646 C 254.759 272.657,254.971 272.934,254.404 273.992 C 253.883 274.966,253.164 275.009,251.529 274.163 C 249.807 273.273,247.004 273.291,246.001 274.199 C 244.251 275.783,245.604 277.675,249.036 278.443 C 256.166 280.039,257.720 286.093,251.651 288.635 C 248.242 290.063,241.603 287.773,242.069 285.330 C 242.245 284.406,243.855 284.153,244.733 284.911 C 247.642 287.421,253.216 286.273,252.192 283.374 C 251.794 282.248,251.402 282.061,246.820 280.807 C 241.664 279.396,240.764 273.408,245.400 271.361 C 247.252 270.543,250.540 270.674,252.609 271.646 M270.628 271.557 C 276.178 274.078,277.371 282.028,272.857 286.408 C 264.278 294.732,252.316 282.578,260.153 273.499 C 262.389 270.908,267.226 270.012,270.628 271.557 M290.681 271.280 C 293.719 272.585,294.893 274.312,293.300 275.132 C 292.464 275.562,291.715 275.338,290.643 274.339 C 289.028 272.835,284.330 273.440,282.733 275.359 C 277.739 281.359,284.829 289.523,291.136 285.035 C 293.700 283.210,295.214 285.389,292.700 287.286 C 284.059 293.807,273.271 282.203,280.319 273.969 C 282.753 271.126,287.471 269.902,290.681 271.280 M299.520 271.280 C 299.861 271.621,300.000 274.080,300.000 279.800 C 300.000 285.520,299.861 287.979,299.520 288.320 C 298.738 289.102,297.606 288.869,297.217 287.846 C 296.787 286.712,296.895 272.017,297.340 271.297 C 297.731 270.665,298.896 270.656,299.520 271.280 M312.710 271.300 C 313.597 272.388,320.398 287.829,320.207 288.325 C 319.718 289.601,317.826 288.651,316.773 286.600 L 315.747 284.600 311.400 284.600 L 307.053 284.600 306.027 286.600 C 304.946 288.705,303.441 289.494,302.950 288.214 C 302.716 287.605,303.212 286.327,306.215 279.800 C 306.924 278.260,308.071 275.747,308.765 274.215 C 310.299 270.829,311.563 269.894,312.710 271.300 M333.373 271.330 C 334.985 272.510,333.832 273.600,330.973 273.600 C 327.851 273.600,328.286 272.482,328.023 281.195 C 327.821 287.895,327.732 288.603,327.081 288.728 C 325.380 289.054,325.200 288.293,325.200 280.769 L 325.200 273.637 322.500 273.518 C 319.734 273.397,318.466 272.165,320.065 271.151 C 320.987 270.567,332.541 270.723,333.373 271.330 M339.120 271.280 C 339.883 272.043,339.791 287.744,339.019 288.384 C 337.223 289.875,337.012 289.101,336.800 280.223 C 336.580 271.006,337.046 269.206,339.120 271.280 M355.916 271.563 C 361.701 274.539,362.828 281.640,358.239 286.200 C 349.959 294.430,338.377 284.179,344.760 274.271 C 346.800 271.104,352.387 269.748,355.916 271.563 M367.287 271.900 C 367.857 272.505,370.065 275.250,372.193 278.000 C 374.322 280.750,376.229 283.060,376.432 283.133 C 376.646 283.211,376.800 280.748,376.800 277.260 C 376.800 271.445,376.828 271.245,377.670 270.978 C 379.372 270.438,379.600 271.502,379.600 279.996 C 379.600 288.079,379.465 288.800,377.954 288.800 C 377.576 288.800,376.670 288.035,375.939 287.100 C 375.209 286.165,374.429 285.191,374.206 284.936 C 373.983 284.680,372.720 283.082,371.400 281.384 C 370.080 279.685,368.601 277.824,368.113 277.248 L 367.225 276.200 367.213 282.020 C 367.200 288.006,367.004 288.800,365.544 288.800 C 364.383 288.800,364.287 288.181,364.182 280.044 C 364.058 270.516,364.613 269.062,367.287 271.900 M265.100 273.488 C 262.132 273.934,259.849 278.156,260.750 281.535 C 262.697 288.836,272.800 287.342,272.800 279.752 C 272.800 275.744,269.258 272.863,265.100 273.488 M350.536 273.503 C 346.941 273.908,344.660 278.892,346.359 282.631 C 349.597 289.761,360.701 285.201,357.848 277.913 C 356.457 274.361,354.325 273.075,350.536 273.503 M214.698 278.100 C 213.008 281.633,212.992 281.600,216.424 281.600 C 219.625 281.600,219.571 281.708,218.000 278.465 C 217.340 277.102,216.800 275.810,216.800 275.594 C 216.800 274.481,215.937 275.510,214.698 278.100 M310.022 277.752 C 308.294 281.526,308.319 281.600,311.333 281.600 C 314.568 281.600,314.555 281.622,313.143 278.466 C 311.479 274.747,311.406 274.730,310.022 277.752 " stroke="none" fill="#fbfbfb" fill-rule="evenodd"></path><path id="path2" d="M67.016 154.475 C 66.568 155.798,65.990 168.633,66.209 172.400 C 66.965 185.385,69.892 197.453,74.117 205.000 C 74.364 205.440,75.085 206.790,75.721 208.000 C 78.238 212.794,84.555 220.658,89.452 225.095 C 92.209 227.593,100.109 233.200,100.871 233.200 C 101.094 233.200,101.804 233.575,102.448 234.034 C 103.092 234.493,105.280 235.578,107.310 236.445 C 109.339 237.313,111.360 238.177,111.800 238.366 C 112.240 238.554,113.410 238.930,114.400 239.200 C 115.390 239.470,116.560 239.830,117.000 240.000 C 128.200 244.323,159.348 244.299,167.695 239.961 C 168.077 239.762,168.859 239.600,169.433 239.600 C 170.888 239.600,180.192 236.424,185.000 234.286 C 187.200 233.307,189.436 232.371,189.969 232.205 C 190.502 232.038,191.132 231.741,191.369 231.543 C 191.606 231.346,192.970 230.576,194.400 229.832 L 197.000 228.478 197.108 219.439 C 197.218 210.162,197.101 209.459,195.689 210.871 C 194.648 211.912,188.657 214.836,182.600 217.259 C 175.177 220.229,174.695 220.400,173.770 220.400 C 173.263 220.400,172.749 220.559,172.629 220.754 C 172.508 220.949,171.913 221.197,171.305 221.306 C 170.697 221.415,168.400 221.960,166.200 222.518 C 162.447 223.470,160.957 223.741,153.723 224.785 C 150.103 225.307,135.256 225.328,132.367 224.815 C 131.175 224.604,128.400 224.132,126.200 223.768 C 121.678 223.019,119.722 222.466,116.000 220.881 C 115.450 220.647,114.280 220.241,113.400 219.978 C 110.852 219.217,101.609 214.472,99.200 212.688 C 93.028 208.118,93.201 208.267,88.221 203.200 C 84.295 199.206,82.722 197.346,80.758 194.379 C 78.025 190.248,76.000 186.943,76.000 186.612 C 76.000 186.429,75.571 185.362,75.047 184.240 C 73.411 180.739,72.400 178.418,72.400 178.165 C 72.400 178.031,72.139 177.354,71.820 176.660 C 71.274 175.473,70.009 170.816,69.142 166.800 C 68.547 164.043,68.052 159.671,68.025 156.924 C 68.002 154.632,67.432 153.248,67.016 154.475 " stroke="none" fill="#6bac51" fill-rule="evenodd"></path><path id="path3" d="M47.819 101.397 C 44.435 108.794,41.094 121.086,39.553 131.800 C 37.591 145.452,38.130 163.932,40.847 176.111 C 41.300 178.140,41.763 180.476,41.877 181.303 C 41.991 182.129,42.245 182.905,42.442 183.026 C 42.639 183.148,42.800 183.552,42.800 183.924 C 42.800 185.503,46.096 195.449,46.869 196.200 L 47.691 197.000 47.461 194.400 C 47.334 192.970,46.959 189.190,46.627 186.000 C 45.126 171.569,46.949 153.071,51.220 139.400 C 52.387 135.664,54.962 128.364,55.627 126.904 C 56.052 125.972,56.400 125.127,56.400 125.028 C 56.400 123.636,63.310 110.822,67.473 104.493 C 69.104 102.014,70.329 99.809,70.196 99.593 C 70.047 99.352,65.872 99.200,59.388 99.200 L 48.823 99.200 47.819 101.397 M108.225 99.837 C 99.839 100.982,82.000 108.202,82.000 110.451 C 82.000 111.547,89.785 124.183,90.552 124.333 C 90.927 124.405,92.711 123.585,94.516 122.510 C 104.648 116.480,114.323 114.650,118.179 118.035 C 119.769 119.431,120.346 121.463,120.497 126.200 L 120.600 129.400 114.000 129.638 C 91.672 130.443,81.248 137.760,80.149 153.399 C 79.243 166.290,85.115 175.226,96.604 178.438 C 100.418 179.505,110.849 179.767,114.000 178.876 C 117.820 177.795,121.469 175.890,123.857 173.728 C 126.114 171.685,126.048 171.699,126.885 173.100 C 128.407 175.646,134.604 180.400,136.401 180.400 C 136.757 180.400,138.388 178.841,140.024 176.936 C 141.661 175.031,143.940 172.466,145.089 171.236 C 147.689 168.452,147.688 168.393,144.954 165.703 C 140.816 161.631,141.033 163.079,140.781 137.800 C 140.639 123.525,140.407 115.267,140.119 114.282 C 136.849 103.080,124.717 97.585,108.225 99.837 M245.000 99.455 C 227.140 103.082,218.653 116.609,224.205 132.600 C 226.603 139.507,233.628 144.124,244.600 146.005 C 256.641 148.069,260.185 149.938,260.926 154.615 C 262.229 162.831,250.647 166.288,238.900 161.191 C 238.405 160.976,237.595 160.648,237.100 160.463 C 236.605 160.278,234.125 159.108,231.588 157.863 C 229.052 156.618,226.768 155.600,226.514 155.600 C 225.911 155.600,219.092 169.541,219.357 170.232 C 219.469 170.524,220.424 171.151,221.480 171.626 C 222.536 172.101,224.344 172.916,225.497 173.438 C 233.104 176.878,243.004 179.207,249.967 179.192 C 258.037 179.175,268.613 176.184,272.219 172.899 C 272.648 172.508,273.540 171.771,274.200 171.262 C 282.040 165.216,284.918 151.576,280.247 142.606 C 276.812 136.012,272.259 133.277,259.200 129.966 C 245.775 126.561,243.010 124.350,245.568 119.066 C 248.445 113.123,259.232 113.283,271.150 119.446 C 272.659 120.226,272.932 119.894,276.150 113.360 C 279.918 105.709,279.946 106.293,275.714 104.338 C 266.351 100.012,252.837 97.864,245.000 99.455 M317.200 99.647 C 309.870 100.485,300.996 103.538,293.070 107.947 C 289.267 110.063,289.163 110.293,290.805 112.917 C 291.522 114.063,292.466 115.630,292.901 116.400 C 293.337 117.170,294.033 118.278,294.447 118.862 C 294.861 119.446,295.200 120.028,295.200 120.156 C 295.200 120.283,295.755 121.291,296.434 122.394 C 297.913 124.797,298.449 124.870,301.292 123.054 C 307.979 118.782,314.204 116.614,319.800 116.606 C 326.495 116.596,327.973 118.146,328.118 125.331 L 328.200 129.400 321.400 129.664 C 298.159 130.568,287.940 138.535,287.949 155.742 C 287.957 168.375,293.215 175.374,305.200 178.703 C 308.141 179.520,319.057 179.623,321.600 178.858 C 325.789 177.598,328.709 176.128,331.166 174.044 L 333.742 171.859 334.346 172.830 C 336.043 175.556,342.257 180.386,344.081 180.396 C 344.912 180.401,354.784 169.274,354.793 168.323 C 354.797 167.950,353.828 166.726,352.641 165.603 C 351.380 164.411,350.091 162.696,349.541 161.481 L 348.600 159.400 348.585 138.000 C 348.569 114.594,348.535 114.211,346.122 110.050 C 341.469 102.024,330.600 98.114,317.200 99.647 M161.400 100.637 C 158.540 101.150,155.030 101.767,153.600 102.007 C 150.227 102.575,150.247 102.542,150.827 106.454 C 151.212 109.046,151.828 189.217,151.609 208.144 C 151.596 209.228,151.816 209.184,166.700 205.127 L 171.200 203.900 171.200 189.550 C 171.200 181.658,171.321 175.200,171.469 175.200 C 171.616 175.200,172.834 175.639,174.174 176.175 C 193.722 183.995,213.041 171.723,216.618 149.213 C 219.638 130.202,214.800 112.699,204.399 105.009 C 195.094 98.129,180.044 97.848,171.798 104.402 C 170.056 105.786,169.600 105.660,169.600 103.795 C 169.600 102.366,168.897 100.402,168.208 99.906 C 167.677 99.524,167.511 99.541,161.400 100.637 M259.600 100.170 C 263.036 100.672,265.336 101.198,269.076 102.341 C 270.780 102.861,277.228 105.614,278.066 106.179 C 278.954 106.778,273.027 119.374,272.007 119.055 C 271.673 118.950,269.780 118.153,267.800 117.283 C 255.136 111.716,244.400 113.605,244.400 121.400 C 244.400 126.012,246.544 127.360,259.061 130.621 C 270.218 133.528,272.643 134.605,276.228 138.243 C 288.311 150.506,280.581 172.057,262.400 176.794 C 261.410 177.052,259.880 177.474,259.000 177.732 C 256.741 178.393,243.657 178.346,240.600 177.666 C 233.475 176.080,220.000 170.894,220.000 169.737 C 220.000 169.057,226.073 156.691,226.588 156.322 C 226.802 156.169,227.528 156.384,228.201 156.801 C 244.744 167.025,261.745 166.372,261.661 155.515 C 261.618 150.039,258.084 147.790,246.056 145.584 C 230.127 142.663,224.078 137.244,223.323 125.218 C 222.227 107.755,237.816 96.991,259.600 100.170 M69.600 100.217 C 69.600 100.337,68.902 101.372,68.049 102.517 C 59.581 113.893,51.360 133.299,48.021 149.800 C 47.754 151.120,47.375 152.920,47.179 153.800 C 45.574 161.012,45.031 179.832,46.177 188.520 C 46.934 194.258,46.940 194.132,46.004 192.360 C 44.124 188.805,41.174 176.005,39.789 165.400 C 39.048 159.733,38.933 141.121,39.609 136.400 C 40.912 127.298,41.393 124.543,42.471 120.000 C 43.702 114.815,46.617 105.754,48.229 102.100 L 49.156 100.000 59.378 100.000 C 65.000 100.000,69.600 100.098,69.600 100.217 M124.108 101.034 C 131.059 102.570,136.502 106.666,138.488 111.851 C 140.189 116.294,140.200 116.473,140.200 138.600 L 140.200 159.800 141.183 161.783 C 141.724 162.874,143.228 164.828,144.525 166.125 L 146.884 168.484 145.294 170.142 C 144.419 171.054,143.275 172.328,142.752 172.973 C 141.156 174.941,137.527 178.970,136.882 179.490 C 135.671 180.467,128.869 175.471,126.761 172.057 L 126.178 171.114 123.989 172.877 C 118.215 177.527,114.348 178.800,106.000 178.800 C 89.350 178.800,80.993 171.110,81.005 155.800 C 81.019 138.491,91.492 130.618,114.983 130.260 L 121.000 130.168 121.129 126.784 C 121.428 118.899,119.628 116.446,113.014 115.727 C 108.483 115.235,100.188 118.177,92.308 123.073 C 91.487 123.583,90.728 124.000,90.620 124.000 C 90.436 124.000,87.600 119.732,87.600 119.455 C 87.600 119.383,86.434 117.364,85.008 114.968 C 82.973 111.546,82.522 110.510,82.908 110.136 C 84.332 108.759,96.009 103.393,99.800 102.375 C 109.002 99.903,117.000 99.462,124.108 101.034 M168.393 101.500 C 168.627 102.325,168.954 103.707,169.121 104.571 C 169.500 106.538,169.948 106.692,171.427 105.367 C 179.123 98.470,195.201 98.689,204.400 105.816 C 207.541 108.249,212.400 114.042,212.400 115.353 C 212.400 115.494,212.750 116.372,213.179 117.304 C 217.699 127.145,217.884 147.502,213.552 158.370 C 210.294 166.542,203.868 173.096,196.221 176.045 C 190.109 178.402,179.226 178.020,173.499 175.248 C 170.384 173.740,170.600 172.721,170.600 188.900 L 170.600 203.400 162.200 205.660 C 157.580 206.903,153.493 208.044,153.117 208.196 C 151.998 208.649,152.000 208.748,151.896 156.400 C 151.814 115.153,151.699 105.965,151.252 104.880 C 150.532 103.134,150.077 103.319,158.775 101.825 C 162.981 101.102,166.538 100.396,166.678 100.255 C 167.312 99.621,168.002 100.122,168.393 101.500 M332.000 101.053 C 338.115 102.532,343.257 106.065,345.547 110.361 C 347.936 114.844,348.052 116.245,347.920 138.968 L 347.800 159.400 348.902 161.644 C 349.526 162.915,350.965 164.796,352.222 165.985 C 354.887 168.506,355.221 167.557,349.275 174.355 L 344.350 179.986 342.075 178.830 C 339.801 177.674,336.150 174.464,334.535 172.200 L 333.679 171.000 331.940 172.660 C 327.356 177.033,322.137 178.800,313.800 178.800 C 297.496 178.800,288.397 170.584,288.401 155.865 C 288.404 139.068,299.495 130.721,322.423 130.260 C 329.733 130.113,329.368 130.356,329.073 125.842 C 328.569 118.135,326.282 115.600,319.829 115.600 C 315.089 115.600,305.097 119.391,300.088 123.090 C 298.303 124.409,298.495 124.595,294.214 117.400 C 290.092 110.473,290.062 110.401,291.100 109.760 C 304.055 101.751,320.455 98.260,332.000 101.053 M179.993 116.196 C 177.391 116.911,174.215 118.607,172.386 120.261 L 170.800 121.693 170.800 139.777 L 170.800 157.861 171.700 158.694 C 174.696 161.468,180.919 163.224,184.818 162.396 C 192.634 160.737,195.587 154.105,195.597 138.190 C 195.607 119.946,190.833 113.217,179.993 116.196 M187.168 116.791 C 193.045 118.476,194.600 122.998,194.600 138.400 C 194.600 151.056,193.710 155.238,190.237 158.891 C 187.014 162.280,180.957 162.886,175.600 160.355 C 171.211 158.281,171.582 160.182,171.583 139.779 L 171.583 121.861 172.599 120.801 C 175.695 117.569,182.935 115.577,187.168 116.791 M110.400 144.028 C 103.698 145.788,101.483 148.397,101.442 154.574 C 101.374 164.854,112.230 168.684,119.289 160.870 L 120.665 159.347 120.797 153.374 C 120.870 150.088,120.945 146.590,120.965 145.600 L 121.000 143.800 116.400 143.730 C 113.870 143.691,111.170 143.825,110.400 144.028 M317.600 144.178 C 311.468 145.904,309.225 148.660,309.209 154.489 C 309.180 164.664,318.244 168.269,326.613 161.411 L 328.282 160.043 328.565 152.516 C 328.720 148.376,328.727 144.676,328.581 144.294 C 328.250 143.432,320.539 143.351,317.600 144.178 M120.063 151.800 C 119.904 160.595,119.970 160.436,115.456 162.848 C 108.015 166.823,101.399 162.186,102.127 153.507 C 102.678 146.923,107.716 143.871,117.600 144.132 L 120.200 144.200 120.063 151.800 M327.909 151.738 L 328.018 159.276 326.509 160.687 C 318.877 167.824,308.706 163.467,309.747 153.506 C 310.440 146.873,315.219 143.940,325.000 144.142 L 327.800 144.200 327.909 151.738 M67.503 148.637 C 67.141 149.318,66.742 150.848,66.616 152.037 C 66.458 153.546,66.503 153.958,66.766 153.400 C 66.974 152.960,67.156 152.105,67.172 151.500 C 67.187 150.895,67.366 150.400,67.568 150.400 C 67.925 150.400,68.284 153.084,68.532 157.600 C 68.598 158.810,68.664 157.550,68.679 154.800 C 68.693 152.050,68.583 149.260,68.433 148.600 L 68.162 147.400 67.503 148.637 M20.211 153.700 C 19.606 156.358,19.101 158.818,18.792 160.600 C 18.602 161.700,18.184 164.130,17.863 166.000 C 8.539 220.427,31.997 269.978,77.317 291.589 C 110.459 307.393,154.491 307.923,188.800 292.930 C 189.570 292.594,190.560 292.167,191.000 291.982 C 199.301 288.496,198.461 290.789,198.316 272.005 C 198.184 254.974,198.454 256.056,194.753 257.745 C 193.569 258.285,191.565 259.104,190.300 259.564 C 189.035 260.024,186.965 260.779,185.700 261.242 C 152.629 273.346,118.446 273.813,87.650 262.580 C 47.477 247.928,21.658 207.629,21.607 159.500 C 21.601 153.853,21.507 152.800,21.008 152.800 C 20.682 152.800,20.323 153.205,20.211 153.700 M65.858 156.890 C 65.717 158.270,65.536 162.820,65.455 167.000 C 65.374 171.180,65.366 173.070,65.437 171.200 C 65.507 169.330,65.770 164.862,66.021 161.271 C 66.468 154.863,66.360 151.953,65.858 156.890 M20.986 160.396 C 20.710 164.028,21.301 173.081,22.202 179.000 C 27.625 214.649,47.192 242.774,77.733 258.819 C 109.604 275.563,154.293 275.498,194.288 258.648 C 195.656 258.072,196.963 257.600,197.193 257.600 C 197.476 257.600,197.576 262.538,197.505 273.059 L 197.400 288.518 192.586 290.615 C 123.003 320.929,46.157 294.479,24.033 232.600 C 23.325 230.620,22.593 228.640,22.407 228.200 C 22.220 227.760,21.984 227.040,21.884 226.600 C 21.783 226.160,21.231 224.057,20.657 221.928 C 18.990 215.741,17.860 209.038,17.163 201.200 C 16.651 195.450,16.933 176.028,17.586 172.000 C 19.903 157.709,20.478 154.919,20.883 156.014 C 21.082 156.552,21.129 158.523,20.986 160.396 M68.859 161.400 C 68.845 162.280,69.182 164.350,69.608 166.000 C 70.411 169.105,70.331 167.882,69.387 162.600 C 68.983 160.339,68.881 160.108,68.859 161.400 M70.442 169.506 C 70.393 170.093,71.531 174.623,72.023 175.800 C 72.207 176.240,72.886 177.950,73.533 179.600 C 74.971 183.271,77.197 187.951,77.632 188.220 C 77.809 188.329,77.000 186.389,75.835 183.909 C 73.874 179.736,72.492 176.002,71.057 171.000 C 70.741 169.900,70.465 169.228,70.442 169.506 M65.801 178.600 C 66.059 183.651,68.766 196.167,69.452 195.482 C 69.559 195.374,69.271 194.142,68.811 192.743 C 67.943 190.104,66.675 183.596,66.017 178.400 L 65.637 175.400 65.801 178.600 M78.000 188.996 C 78.000 189.372,81.597 194.800,81.846 194.800 C 81.984 194.800,81.810 194.395,81.459 193.900 C 81.108 193.405,80.262 192.055,79.581 190.900 C 78.458 188.998,78.000 188.446,78.000 188.996 M296.583 189.606 C 286.831 190.969,286.452 205.138,296.100 207.668 C 300.327 208.776,306.687 205.264,304.196 203.197 C 303.699 202.785,303.313 202.890,302.006 203.796 C 295.947 207.995,288.975 201.016,293.003 194.786 C 294.582 192.343,298.765 191.572,301.446 193.229 C 304.470 195.097,306.161 192.912,303.205 190.956 C 301.374 189.744,299.022 189.265,296.583 189.606 M213.384 193.474 C 212.385 195.633,211.416 197.760,211.232 198.200 C 210.783 199.275,208.406 204.425,207.958 205.295 C 207.269 206.630,207.528 207.600,208.573 207.600 C 209.568 207.600,210.586 206.457,211.511 204.300 L 211.983 203.200 216.302 203.200 L 220.621 203.200 221.623 205.300 C 222.492 207.119,222.798 207.417,223.913 207.525 C 225.571 207.687,225.564 207.262,223.847 203.536 C 223.102 201.921,221.816 199.080,220.989 197.222 C 216.798 187.810,216.154 187.492,213.384 193.474 M228.178 190.036 C 227.853 190.561,227.890 206.699,228.217 207.228 C 228.530 207.735,229.892 207.699,230.215 207.176 C 230.359 206.942,230.453 204.326,230.423 201.362 C 230.355 194.528,230.456 194.416,233.065 198.428 C 235.914 202.807,235.955 202.852,236.742 202.431 C 237.104 202.237,238.390 200.529,239.600 198.635 L 241.800 195.190 242.000 201.053 C 242.210 207.209,242.510 208.104,244.153 207.473 C 244.746 207.246,244.804 206.307,244.708 198.510 L 244.600 189.800 243.516 189.800 C 242.594 189.800,242.024 190.392,239.698 193.773 C 236.263 198.764,236.539 198.739,233.594 194.321 C 230.510 189.694,229.085 188.567,228.178 190.036 M249.280 190.080 C 248.773 190.587,248.561 205.711,249.043 206.967 C 249.341 207.743,261.114 207.926,261.874 207.166 C 263.310 205.730,262.052 205.200,257.202 205.200 C 251.753 205.200,251.490 205.054,251.677 202.131 L 251.800 200.200 256.000 200.091 C 260.542 199.973,261.602 199.499,260.778 197.958 C 260.442 197.332,259.772 197.211,256.093 197.113 L 251.800 197.000 251.671 195.645 C 251.368 192.481,251.436 192.438,256.905 192.312 C 261.723 192.202,261.802 192.185,261.935 191.245 C 262.009 190.720,261.829 190.138,261.535 189.951 C 260.672 189.404,249.842 189.518,249.280 190.080 M265.436 189.941 C 265.047 190.571,265.130 206.890,265.525 207.285 C 266.841 208.601,267.798 207.452,267.919 204.412 C 268.054 201.050,268.194 200.869,270.527 201.035 C 272.215 201.155,272.343 201.253,274.400 204.005 C 276.734 207.126,277.265 207.600,278.436 207.600 C 280.126 207.600,279.929 206.799,277.419 203.482 L 275.237 200.600 276.559 199.921 C 280.552 197.870,280.378 192.406,276.257 190.469 C 274.324 189.560,265.925 189.150,265.436 189.941 M283.241 190.151 C 282.922 190.535,282.816 193.230,282.892 199.051 L 283.000 207.400 283.955 207.535 C 284.480 207.609,285.062 207.429,285.249 207.135 C 285.803 206.260,285.685 190.645,285.120 190.080 C 284.487 189.447,283.804 189.473,283.241 190.151 M313.422 191.100 C 311.064 195.969,306.400 206.512,306.400 206.971 C 306.400 208.894,309.150 207.307,310.150 204.807 L 310.794 203.200 315.178 203.200 L 319.563 203.200 320.397 205.086 C 321.318 207.169,321.766 207.585,323.100 207.594 C 324.475 207.603,324.433 207.423,321.506 200.800 C 321.068 199.810,320.258 198.010,319.704 196.800 C 319.151 195.590,318.188 193.475,317.566 192.100 C 316.131 188.933,314.645 188.574,313.422 191.100 M327.280 190.080 C 326.451 190.909,326.613 207.154,327.454 207.476 C 329.108 208.111,329.394 207.216,329.511 201.057 C 329.572 197.836,329.752 195.207,329.911 195.215 C 330.070 195.223,332.270 197.917,334.800 201.202 C 339.117 206.807,340.503 208.078,341.577 207.414 C 342.336 206.945,342.138 190.613,341.366 189.972 C 339.811 188.681,339.408 189.879,339.289 196.143 C 339.171 202.403,339.066 202.711,337.748 200.673 C 336.561 198.840,330.048 190.709,329.279 190.100 C 328.485 189.472,327.894 189.466,327.280 190.080 M217.067 190.500 C 217.268 190.775,218.386 193.070,219.552 195.600 C 220.717 198.130,222.321 201.595,223.115 203.300 C 225.007 207.359,224.066 208.885,222.083 204.973 C 220.890 202.620,220.638 202.521,216.000 202.578 L 211.800 202.630 210.770 204.525 C 209.503 206.855,209.126 207.249,208.517 206.872 C 208.180 206.664,209.022 204.438,211.395 199.258 C 215.681 189.903,216.127 189.214,217.067 190.500 M302.137 190.988 C 303.798 191.786,304.353 192.607,303.684 193.276 C 303.388 193.572,302.873 193.421,301.957 192.769 C 298.676 190.433,293.745 191.777,292.003 195.483 C 288.929 202.022,295.679 208.209,301.905 204.560 C 304.200 203.215,305.329 203.871,303.400 205.429 C 299.318 208.726,292.962 207.390,290.649 202.748 C 286.815 195.053,294.409 187.278,302.137 190.988 M316.226 190.983 C 317.268 192.574,323.542 206.725,323.308 206.958 C 322.814 207.453,321.495 206.222,320.812 204.628 C 320.026 202.794,318.168 202.245,314.000 202.614 C 313.230 202.683,312.095 202.752,311.478 202.769 C 310.548 202.795,310.222 203.101,309.582 204.547 C 308.724 206.488,307.849 207.401,307.220 207.013 C 306.955 206.849,307.115 206.153,307.665 205.078 C 308.138 204.155,309.670 200.797,311.071 197.617 C 314.632 189.528,314.980 189.081,316.226 190.983 M231.108 191.900 C 231.754 192.725,233.138 194.692,234.182 196.272 C 236.481 199.750,236.371 199.784,239.819 194.583 C 243.999 188.280,244.171 188.438,244.308 198.700 C 244.414 206.597,244.396 206.800,243.608 206.800 C 242.832 206.800,242.800 206.555,242.800 200.600 C 242.800 193.041,242.662 192.949,239.200 198.200 C 237.822 200.290,236.562 202.000,236.400 202.000 C 236.238 202.000,234.978 200.290,233.600 198.200 C 230.138 192.949,230.000 193.041,230.000 200.600 C 230.000 206.533,229.966 206.800,229.200 206.800 C 228.392 206.800,227.884 191.449,228.667 190.667 C 229.243 190.090,229.983 190.464,231.108 191.900 M261.301 191.000 C 261.361 191.242,259.479 191.479,256.532 191.600 C 250.825 191.834,251.291 191.565,251.134 194.721 C 250.976 197.922,251.142 198.028,256.200 197.952 C 259.580 197.901,260.220 197.991,260.327 198.533 C 260.436 199.085,259.828 199.189,255.927 199.287 L 251.400 199.400 251.400 202.400 L 251.400 205.400 256.500 205.512 C 260.484 205.599,261.600 205.743,261.600 206.169 C 261.600 207.168,249.815 207.275,249.535 206.279 C 249.461 206.015,249.453 202.330,249.517 198.089 L 249.634 190.379 255.418 190.489 C 258.847 190.555,261.242 190.763,261.301 191.000 M276.838 191.312 C 279.751 193.273,279.275 198.243,276.047 199.580 C 275.361 199.865,274.800 200.322,274.800 200.596 C 274.800 201.079,277.801 205.132,278.548 205.660 C 279.072 206.029,278.501 207.300,277.900 207.103 C 277.625 207.013,276.256 205.460,274.857 203.652 L 272.314 200.364 269.857 200.482 L 267.400 200.600 267.200 203.705 C 267.090 205.413,266.865 206.808,266.700 206.805 C 266.535 206.802,266.220 206.800,266.000 206.800 C 265.530 206.800,265.433 191.103,265.900 190.630 C 266.527 189.995,275.735 190.570,276.838 191.312 M285.108 198.705 C 285.214 206.597,285.196 206.800,284.408 206.800 C 283.623 206.800,283.600 206.561,283.600 198.571 C 283.600 190.949,283.652 190.351,284.300 190.476 C 284.935 190.598,285.010 191.364,285.108 198.705 M329.000 190.706 C 329.585 191.136,332.653 194.881,335.794 199.000 C 340.044 204.573,340.000 204.599,340.000 196.547 C 340.000 190.851,340.058 190.353,340.700 190.478 C 341.365 190.608,341.875 204.508,341.280 206.300 C 340.852 207.592,339.432 206.283,334.865 200.379 C 328.633 192.324,328.800 192.323,328.800 200.400 C 328.800 205.822,328.708 206.800,328.200 206.800 C 327.870 206.800,327.600 206.575,327.600 206.300 C 327.600 206.025,327.583 202.470,327.563 198.400 C 327.542 194.330,327.542 190.865,327.563 190.700 C 327.610 190.318,328.477 190.322,329.000 190.706 M267.631 192.163 C 267.341 192.512,267.208 193.842,267.282 195.663 L 267.400 198.600 271.116 198.715 C 276.492 198.882,279.217 195.831,276.194 193.030 C 274.595 191.547,268.642 190.945,267.631 192.163 M275.220 193.010 C 279.512 195.230,273.416 199.993,268.633 198.157 C 267.982 197.907,267.672 193.262,268.267 192.667 C 268.797 192.136,274.030 192.395,275.220 193.010 M314.039 194.500 C 313.636 195.435,312.903 197.054,312.410 198.099 C 311.091 200.892,311.367 201.200,315.200 201.200 C 319.008 201.200,319.304 200.887,318.043 198.199 C 317.580 197.209,316.820 195.590,316.356 194.600 C 315.309 192.368,314.964 192.353,314.039 194.500 M214.137 196.785 C 212.131 201.127,212.223 201.284,216.662 201.118 C 220.392 200.978,220.381 201.010,218.341 196.311 C 216.595 192.290,216.192 192.336,214.137 196.785 M217.954 197.013 C 219.552 200.567,219.675 200.313,216.298 200.436 C 212.868 200.560,212.922 200.669,214.636 197.059 C 216.410 193.324,216.297 193.326,217.954 197.013 M316.780 197.014 C 318.390 200.677,318.251 200.785,312.421 200.424 C 312.213 200.411,312.552 199.275,313.175 197.900 C 313.798 196.525,314.413 195.085,314.541 194.700 C 314.957 193.454,315.431 193.943,316.780 197.014 M82.432 195.900 C 86.816 201.696,95.082 209.698,98.400 211.359 C 99.236 211.778,98.403 211.067,95.578 208.953 C 93.064 207.071,86.446 200.417,83.988 197.300 C 82.502 195.416,81.135 194.186,82.432 195.900 M69.638 196.400 C 69.665 197.160,71.130 200.359,71.170 199.744 C 71.187 199.493,70.844 198.503,70.409 197.544 C 69.974 196.585,69.627 196.070,69.638 196.400 M71.216 200.600 C 71.209 200.820,72.204 202.966,73.427 205.368 C 82.161 222.534,96.502 234.539,115.544 240.627 C 118.882 241.693,126.607 243.331,127.266 243.111 C 127.506 243.031,125.924 242.633,123.751 242.226 C 101.730 238.102,83.530 224.574,73.640 204.981 C 72.313 202.352,71.222 200.380,71.216 200.600 M196.244 209.529 C 196.117 209.735,195.365 210.210,194.574 210.586 C 193.783 210.961,193.236 211.369,193.359 211.493 C 193.483 211.616,194.304 211.241,195.183 210.659 C 196.063 210.076,196.967 209.600,197.191 209.600 C 197.830 209.600,197.742 228.481,197.100 229.201 C 196.674 229.678,196.705 229.682,197.307 229.226 C 198.350 228.436,198.189 209.485,197.137 209.283 C 196.773 209.213,196.371 209.324,196.244 209.529 M99.200 211.830 C 99.200 212.755,109.996 218.220,116.015 220.341 C 128.211 224.639,143.185 225.905,157.180 223.820 C 166.587 222.419,178.034 218.932,187.489 214.587 C 191.756 212.627,189.962 213.087,184.962 215.237 C 154.932 228.143,125.137 227.407,101.720 213.181 C 100.334 212.339,99.200 211.731,99.200 211.830 M191.200 212.400 C 190.650 212.830,190.380 213.182,190.600 213.182 C 190.820 213.182,191.450 212.830,192.000 212.400 C 192.550 211.970,192.820 211.618,192.600 211.618 C 192.380 211.618,191.750 211.970,191.200 212.400 M230.335 216.935 C 224.248 219.208,222.169 226.782,226.305 231.614 C 234.000 240.604,247.597 229.391,240.396 219.995 C 238.219 217.155,233.549 215.734,230.335 216.935 M295.904 216.947 C 286.197 220.558,288.307 234.914,298.545 234.914 C 302.156 234.914,306.324 232.438,305.340 230.877 C 304.678 229.824,303.738 229.854,302.272 230.972 C 299.506 233.082,295.231 232.160,293.416 229.063 C 289.858 222.993,297.041 216.367,302.612 220.579 C 303.714 221.412,304.696 221.341,305.204 220.392 C 306.440 218.084,299.628 215.561,295.904 216.947 M208.880 217.280 C 208.343 217.817,208.183 233.052,208.706 233.846 C 210.006 235.820,211.514 234.572,211.677 231.386 L 211.800 229.000 214.814 228.755 C 222.519 228.128,225.348 220.673,219.041 217.620 C 217.051 216.657,209.747 216.413,208.880 217.280 M245.867 217.067 C 245.335 217.599,245.560 234.396,246.100 234.450 C 249.823 234.820,256.832 234.663,257.461 234.196 C 259.206 232.899,257.701 232.210,252.857 232.087 L 248.400 231.974 248.400 224.630 C 248.400 218.302,248.312 217.252,247.767 217.043 C 246.940 216.725,246.199 216.735,245.867 217.067 M260.812 217.578 C 260.338 218.464,260.274 233.176,260.742 233.873 C 261.202 234.559,262.306 234.757,262.970 234.272 C 263.537 233.857,263.603 232.757,263.508 225.399 L 263.400 217.000 262.327 216.876 C 261.570 216.789,261.123 216.996,260.812 217.578 M266.528 217.445 C 266.025 218.755,266.953 219.394,269.542 219.519 L 272.000 219.638 272.000 226.770 C 272.000 234.393,272.197 235.172,273.981 234.606 C 274.767 234.356,274.800 234.052,274.800 226.973 L 274.800 219.600 277.100 219.594 C 279.830 219.587,280.517 219.239,280.335 217.955 L 280.200 217.000 273.491 216.890 C 267.546 216.793,266.753 216.856,266.528 217.445 M283.680 217.280 C 283.338 217.622,283.200 220.100,283.200 225.889 L 283.200 234.017 284.188 234.467 C 286.227 235.396,286.400 234.731,286.400 225.984 C 286.400 221.629,286.291 217.781,286.157 217.433 C 285.871 216.687,284.366 216.594,283.680 217.280 M314.503 217.280 C 314.106 217.763,313.481 219.072,311.200 224.200 C 310.711 225.300,309.859 227.190,309.306 228.400 C 306.898 233.677,306.820 233.919,307.377 234.381 C 308.356 235.194,309.809 234.216,310.565 232.236 C 310.951 231.226,311.476 230.386,311.733 230.368 C 319.041 229.872,321.200 230.394,321.200 232.654 C 321.200 233.341,322.634 234.802,323.300 234.794 C 324.770 234.776,324.886 234.137,323.836 231.842 C 323.266 230.596,322.800 229.513,322.800 229.436 C 322.800 229.256,319.063 221.155,317.894 218.800 C 316.951 216.901,315.391 216.201,314.503 217.280 M327.700 217.058 C 327.029 217.338,326.974 233.813,327.644 234.227 C 328.210 234.577,337.962 234.866,338.923 234.561 C 339.430 234.400,339.610 234.013,339.523 233.266 L 339.400 232.200 334.800 232.000 L 330.200 231.800 330.000 224.400 C 329.787 216.521,329.694 216.223,327.700 217.058 M218.999 218.226 C 224.635 220.901,221.364 228.000,214.496 228.000 C 211.101 228.000,210.800 228.286,210.800 231.509 C 210.800 233.722,210.708 234.041,210.100 233.924 C 209.389 233.788,208.795 220.536,209.391 218.111 C 209.654 217.042,216.683 217.127,218.999 218.226 M237.237 218.131 C 243.325 221.345,242.951 230.771,236.622 233.646 C 231.108 236.150,224.818 231.970,224.818 225.800 C 224.818 219.307,231.568 215.138,237.237 218.131 M247.510 224.603 C 247.643 233.310,247.311 232.800,252.849 232.800 C 256.450 232.800,257.200 232.903,257.200 233.400 C 257.200 233.904,256.333 234.000,251.800 234.000 C 246.469 234.000,246.400 233.989,246.393 233.100 C 246.390 232.605,246.335 228.910,246.271 224.889 C 246.208 220.867,246.245 217.488,246.353 217.380 C 247.168 216.565,247.409 218.072,247.510 224.603 M262.708 225.764 C 262.809 233.520,262.770 234.053,262.108 233.926 C 261.407 233.791,260.767 219.304,261.391 217.679 C 262.219 215.522,262.606 217.897,262.708 225.764 M279.640 217.625 C 280.627 218.234,279.448 218.800,277.190 218.800 C 273.927 218.800,273.869 218.954,274.052 227.156 C 274.187 233.220,274.140 233.798,273.500 233.923 C 272.855 234.048,272.800 233.511,272.800 227.062 C 272.800 218.395,272.946 218.800,269.824 218.800 C 267.178 218.800,266.734 218.638,267.058 217.793 C 267.279 217.216,278.731 217.063,279.640 217.625 M285.600 225.338 C 285.823 234.111,285.834 234.000,284.767 234.000 C 283.982 234.000,283.513 218.220,284.275 217.458 C 285.178 216.556,285.412 217.951,285.600 225.338 M302.837 218.132 C 303.807 218.645,304.658 219.365,304.729 219.732 C 304.895 220.587,303.878 220.601,302.595 219.760 C 297.657 216.525,291.635 220.279,292.072 226.321 C 292.455 231.617,297.997 234.626,302.162 231.800 C 303.816 230.678,304.800 230.518,304.800 231.373 C 304.800 234.821,295.298 235.102,292.315 231.742 C 286.042 224.675,294.506 213.727,302.837 218.132 M317.264 218.802 C 319.151 222.568,324.000 233.452,324.000 233.923 C 324.000 235.207,322.525 234.004,321.515 231.896 L 320.414 229.600 315.814 229.600 L 311.213 229.600 310.154 231.700 C 309.033 233.924,308.409 234.569,307.887 234.047 C 307.621 233.781,312.359 222.733,314.591 218.417 C 315.417 216.819,316.336 216.952,317.264 218.802 M329.600 225.033 L 329.800 232.600 334.527 232.713 C 338.745 232.814,339.239 232.900,339.121 233.513 C 339.049 233.891,338.677 234.185,338.295 234.167 C 337.913 234.148,335.440 234.103,332.800 234.067 L 328.000 234.000 328.000 225.867 C 328.000 221.393,328.124 217.610,328.275 217.458 C 329.171 216.562,329.413 217.941,329.600 225.033 M211.280 219.280 C 210.414 220.146,210.651 225.892,211.574 226.386 C 215.949 228.728,222.423 223.623,219.184 220.384 C 217.637 218.837,212.448 218.112,211.280 219.280 M229.589 219.700 C 223.944 223.522,226.560 232.819,233.274 232.793 C 239.948 232.768,242.469 223.509,236.835 219.712 C 234.952 218.443,231.454 218.437,229.589 219.700 M236.785 220.389 C 240.156 222.789,240.066 229.152,236.632 231.246 C 231.843 234.166,225.881 229.603,227.271 224.082 C 228.343 219.828,233.296 217.905,236.785 220.389 M217.761 220.055 C 221.479 221.749,219.323 225.737,214.667 225.776 L 211.800 225.800 211.683 222.700 L 211.566 219.600 214.164 219.600 C 215.593 219.600,217.212 219.805,217.761 220.055 M314.921 220.700 C 314.781 221.085,314.080 222.747,313.362 224.393 C 311.620 228.391,312.481 229.072,318.100 228.143 C 319.943 227.839,319.952 228.074,317.917 223.654 C 316.278 220.097,315.440 219.270,314.921 220.700 M317.426 224.173 C 318.944 227.664,318.974 227.600,315.800 227.600 C 312.681 227.600,312.672 227.587,313.879 224.869 C 314.434 223.621,315.053 222.170,315.255 221.645 C 315.725 220.423,315.868 220.590,317.426 224.173 M192.600 231.423 C 191.500 231.971,188.910 233.173,186.845 234.092 C 184.779 235.011,183.266 235.822,183.483 235.894 C 183.923 236.041,194.800 230.975,194.800 230.624 C 194.800 230.318,194.850 230.300,192.600 231.423 M177.816 237.658 C 175.404 238.527,171.084 239.846,168.216 240.590 C 165.347 241.333,163.288 241.954,163.641 241.970 C 165.428 242.053,180.177 237.671,182.321 236.420 C 183.553 235.702,182.257 236.058,177.816 237.658 M158.600 242.637 L 156.200 243.171 158.459 242.962 C 161.066 242.720,163.751 242.056,162.000 242.086 C 161.450 242.095,159.920 242.343,158.600 242.637 M129.600 243.613 C 131.405 243.942,136.279 244.127,135.967 243.855 C 135.875 243.775,134.000 243.615,131.800 243.498 C 129.126 243.356,128.397 243.394,129.600 243.613 M152.318 243.416 C 152.199 243.534,148.524 243.792,144.151 243.988 L 136.200 244.344 144.200 244.146 C 148.600 244.037,153.100 243.804,154.200 243.628 L 156.200 243.307 154.367 243.253 C 153.358 243.224,152.436 243.297,152.318 243.416 M211.160 244.374 C 209.239 245.419,208.400 246.803,208.400 248.928 C 208.400 251.749,209.832 252.944,214.788 254.256 C 218.317 255.191,219.323 256.709,217.525 258.384 C 216.263 259.560,213.493 259.472,211.243 258.186 C 209.124 256.975,207.894 257.171,208.077 258.692 C 208.364 261.081,215.057 262.922,217.972 261.414 C 223.386 258.615,221.968 253.128,215.388 251.414 C 212.397 250.635,211.200 249.834,211.200 248.613 C 211.200 246.497,214.373 245.769,217.469 247.175 C 218.824 247.791,219.265 247.841,219.813 247.440 C 222.751 245.291,214.710 242.442,211.160 244.374 M229.400 244.112 C 225.947 246.117,225.490 246.544,224.514 248.675 C 220.662 257.089,229.354 265.398,237.098 260.705 C 238.874 259.628,239.215 259.241,239.117 258.408 C 238.957 257.041,237.982 256.965,236.192 258.180 C 232.023 261.009,226.958 258.441,226.533 253.283 C 226.070 247.667,231.821 244.339,236.379 247.585 C 237.799 248.596,238.868 248.384,239.133 247.038 C 239.592 244.704,232.205 242.483,229.400 244.112 M242.841 244.151 C 241.993 245.172,242.433 261.211,243.323 261.757 C 244.894 262.719,245.200 261.276,245.200 252.897 C 245.200 244.131,244.625 242.001,242.841 244.151 M249.900 244.048 C 249.015 244.543,248.811 260.912,249.683 261.452 C 250.366 261.873,261.672 261.688,262.112 261.248 C 263.460 259.900,262.268 259.403,257.195 259.200 L 252.200 259.000 252.200 256.600 L 252.200 254.200 256.477 254.087 C 260.447 253.982,260.774 253.912,261.026 253.117 C 261.492 251.650,260.290 251.200,255.904 251.200 L 251.960 251.200 252.080 248.900 L 252.200 246.600 257.200 246.400 C 261.963 246.209,262.206 246.159,262.324 245.327 C 262.400 244.798,262.163 244.304,261.724 244.073 C 260.765 243.568,250.796 243.547,249.900 244.048 M265.829 244.229 C 265.300 244.757,265.200 246.094,265.200 252.596 C 265.200 261.367,265.243 261.600,266.843 261.600 L 268.000 261.600 268.042 258.700 C 268.065 257.105,268.095 254.405,268.109 252.700 C 268.143 248.476,268.645 248.780,274.200 256.377 C 280.038 264.362,280.800 263.949,280.800 252.800 C 280.800 246.113,280.701 244.758,280.171 244.229 C 278.501 242.558,278.037 243.860,277.911 250.570 L 277.800 256.485 274.679 252.542 C 272.963 250.374,271.073 247.970,270.480 247.200 C 267.797 243.717,266.908 243.149,265.829 244.229 M288.615 244.709 C 282.153 248.260,282.378 258.045,288.993 261.155 C 292.202 262.663,296.550 261.983,299.143 259.567 C 301.096 257.748,298.965 256.569,296.611 258.166 C 292.309 261.086,286.875 258.107,286.820 252.800 C 286.765 247.529,292.492 244.478,296.658 247.558 C 298.164 248.671,299.739 248.184,299.524 246.673 C 299.141 243.982,292.210 242.734,288.615 244.709 M303.037 244.083 C 302.323 244.483,302.068 260.056,302.757 261.144 C 303.242 261.909,314.670 262.073,315.418 261.325 C 316.992 259.751,315.743 259.200,310.596 259.200 C 305.158 259.200,305.195 259.219,305.206 256.467 C 305.216 254.150,305.421 254.041,310.014 253.915 L 314.200 253.800 314.325 252.714 C 314.479 251.382,314.008 251.239,309.000 251.100 L 305.400 251.000 305.271 249.645 C 304.968 246.481,305.036 246.438,310.505 246.312 C 315.191 246.205,315.405 246.163,315.524 245.327 C 315.601 244.791,315.359 244.299,314.900 244.053 C 313.983 243.562,303.922 243.588,303.037 244.083 M235.667 244.760 C 238.227 245.883,239.105 246.639,238.530 247.224 C 238.166 247.593,237.581 247.463,235.951 246.650 C 227.802 242.589,221.456 253.975,229.149 258.854 C 231.651 260.440,236.162 260.004,237.363 258.059 C 237.686 257.537,238.802 257.914,238.795 258.543 C 238.792 258.794,238.165 259.405,237.401 259.900 C 230.362 264.459,222.224 258.314,224.578 250.218 C 225.982 245.387,231.220 242.809,235.667 244.760 M296.600 244.995 C 298.666 245.889,299.472 246.673,298.910 247.243 C 298.520 247.639,297.966 247.511,296.199 246.617 C 292.665 244.829,288.697 245.919,287.034 249.134 C 283.569 255.836,290.565 262.763,296.707 258.712 C 298.209 257.722,299.200 257.656,299.200 258.547 C 299.200 260.780,292.345 262.193,289.212 260.606 C 279.218 255.542,286.316 240.546,296.600 244.995 M217.961 245.031 C 219.561 245.671,220.290 246.573,219.568 247.020 C 219.350 247.154,218.210 246.866,217.034 246.379 C 214.420 245.295,212.426 245.532,211.217 247.069 C 209.554 249.183,210.752 250.785,214.880 251.966 C 218.771 253.078,220.231 254.091,220.409 255.800 C 220.947 260.969,215.251 263.141,209.700 259.884 C 206.882 258.230,208.333 257.462,211.368 259.002 C 214.560 260.621,217.223 260.223,218.581 257.924 C 219.816 255.833,218.260 254.454,213.224 253.178 C 206.847 251.563,207.712 244.466,214.292 244.416 C 215.442 244.407,217.094 244.684,217.961 245.031 M244.400 252.829 C 244.400 260.642,244.349 261.249,243.700 261.124 C 242.374 260.869,242.460 244.400,243.787 244.400 C 244.318 244.400,244.400 245.526,244.400 252.829 M261.600 245.200 C 261.600 245.957,261.333 246.000,256.643 246.000 C 251.064 246.000,251.196 245.924,251.206 249.133 C 251.215 251.896,251.312 251.956,256.014 252.085 C 259.263 252.174,260.200 252.324,260.200 252.755 C 260.200 253.197,259.394 253.294,256.270 253.231 C 251.532 253.136,251.200 253.331,251.200 256.216 C 251.200 259.710,251.024 259.600,256.600 259.600 C 261.324 259.600,262.700 259.967,261.706 260.961 C 261.314 261.353,250.467 261.232,250.220 260.833 C 249.902 260.318,249.872 245.330,250.188 244.819 C 250.741 243.924,261.600 244.287,261.600 245.200 M272.590 250.818 C 275.396 254.348,277.889 257.170,278.129 257.090 C 278.418 256.994,278.571 254.863,278.583 250.772 C 278.597 245.560,278.693 244.600,279.200 244.600 C 279.994 244.600,280.114 260.829,279.322 261.093 C 279.059 261.180,276.551 258.354,273.747 254.811 C 267.384 246.771,267.456 246.773,267.566 254.648 C 267.648 260.552,267.340 262.006,266.239 260.906 C 265.909 260.576,265.936 244.998,266.267 244.667 C 266.954 243.979,267.829 244.831,272.590 250.818 M314.724 245.100 C 314.607 245.714,313.986 245.814,309.678 245.912 L 304.765 246.025 304.883 248.912 L 305.000 251.800 309.000 251.906 C 313.565 252.028,314.364 252.196,313.669 252.891 C 313.368 253.192,311.894 253.325,309.502 253.267 C 304.794 253.154,304.731 253.199,304.880 256.636 L 305.000 259.400 310.000 259.600 C 314.089 259.764,315.000 259.909,315.000 260.400 C 315.000 261.027,306.164 261.520,304.100 261.008 C 303.202 260.785,302.611 245.523,303.467 244.667 C 304.164 243.969,314.862 244.381,314.724 245.100 M215.325 271.106 C 215.064 271.276,213.927 273.482,212.799 276.008 C 211.670 278.534,210.039 282.088,209.173 283.907 C 207.524 287.376,207.326 288.183,208.023 288.614 C 209.032 289.238,210.221 288.380,211.092 286.401 L 211.984 284.373 216.292 284.486 L 220.600 284.600 221.600 286.600 C 222.391 288.181,222.831 288.627,223.702 288.727 C 225.388 288.921,225.383 288.077,223.678 284.372 C 222.825 282.517,221.604 279.830,220.965 278.400 C 217.771 271.252,216.874 270.093,215.325 271.106 M229.747 271.567 C 225.556 274.123,226.638 279.457,231.620 280.800 C 235.725 281.907,236.794 282.438,237.061 283.502 C 237.746 286.230,233.289 287.226,229.684 285.151 C 227.885 284.116,226.800 284.344,226.800 285.758 C 226.800 286.871,229.850 288.631,232.533 289.067 C 236.248 289.670,240.000 287.059,240.000 283.871 C 240.000 281.096,238.410 279.732,233.600 278.380 C 230.132 277.405,229.186 276.108,230.591 274.254 C 231.402 273.183,234.713 273.234,236.512 274.346 C 237.656 275.053,237.980 275.103,238.578 274.666 C 241.677 272.399,233.238 269.438,229.747 271.567 M245.400 271.361 C 240.764 273.408,241.664 279.396,246.820 280.807 C 251.402 282.061,251.794 282.248,252.192 283.374 C 253.216 286.273,247.642 287.421,244.733 284.911 C 243.855 284.153,242.245 284.406,242.069 285.330 C 241.603 287.773,248.242 290.063,251.651 288.635 C 257.720 286.093,256.166 280.039,249.036 278.443 C 245.604 277.675,244.251 275.783,246.001 274.199 C 247.004 273.291,249.807 273.273,251.529 274.163 C 253.164 275.009,253.883 274.966,254.404 273.992 C 255.598 271.761,248.916 269.809,245.400 271.361 M262.600 271.676 C 256.787 274.731,255.873 282.690,260.846 286.947 C 267.836 292.929,277.746 285.927,275.206 276.800 C 273.844 271.906,267.257 269.229,262.600 271.676 M283.378 271.554 C 282.485 271.960,281.109 273.046,280.319 273.969 C 273.271 282.203,284.059 293.807,292.700 287.286 C 295.214 285.389,293.700 283.210,291.136 285.035 C 284.829 289.523,277.739 281.359,282.733 275.359 C 284.330 273.440,289.028 272.835,290.643 274.339 C 291.715 275.338,292.464 275.562,293.300 275.132 C 294.893 274.312,293.719 272.585,290.681 271.280 C 289.010 270.563,285.251 270.704,283.378 271.554 M297.340 271.297 C 296.895 272.017,296.787 286.712,297.217 287.846 C 297.606 288.869,298.738 289.102,299.520 288.320 C 299.861 287.979,300.000 285.520,300.000 279.800 C 300.000 274.080,299.861 271.621,299.520 271.280 C 298.896 270.656,297.731 270.665,297.340 271.297 M310.513 271.122 C 310.246 271.292,309.459 272.684,308.765 274.215 C 308.071 275.747,306.924 278.260,306.215 279.800 C 303.212 286.327,302.716 287.605,302.950 288.214 C 303.441 289.494,304.946 288.705,306.027 286.600 L 307.053 284.600 311.400 284.600 L 315.747 284.600 316.773 286.600 C 317.826 288.651,319.718 289.601,320.207 288.325 C 320.398 287.829,313.597 272.388,312.710 271.300 C 312.252 270.738,311.245 270.656,310.513 271.122 M320.065 271.151 C 318.466 272.165,319.734 273.397,322.500 273.518 L 325.200 273.637 325.200 280.769 C 325.200 288.293,325.380 289.054,327.081 288.728 C 327.732 288.603,327.821 287.895,328.023 281.195 C 328.286 272.482,327.851 273.600,330.973 273.600 C 333.832 273.600,334.985 272.510,333.373 271.330 C 332.541 270.723,320.987 270.567,320.065 271.151 M337.129 271.328 C 336.212 272.243,336.765 288.545,337.719 288.728 C 339.451 289.060,339.600 288.354,339.600 279.831 C 339.600 270.923,339.135 269.325,337.129 271.328 M347.572 271.789 C 342.219 274.579,341.208 282.031,345.589 286.411 C 353.998 294.820,366.549 282.189,358.454 273.463 C 355.839 270.644,351.154 269.923,347.572 271.789 M364.454 271.500 C 364.030 272.293,364.131 287.642,364.565 288.344 C 364.934 288.940,366.113 288.927,366.720 288.320 C 367.048 287.992,367.204 285.998,367.213 282.020 L 367.225 276.200 368.113 277.248 C 368.601 277.824,370.080 279.685,371.400 281.384 C 372.720 283.082,373.983 284.680,374.206 284.936 C 374.429 285.191,375.209 286.165,375.939 287.100 C 376.670 288.035,377.576 288.800,377.954 288.800 C 379.465 288.800,379.600 288.079,379.600 279.996 C 379.600 271.502,379.372 270.438,377.670 270.978 C 376.828 271.245,376.800 271.445,376.800 277.260 C 376.800 280.748,376.646 283.211,376.432 283.133 C 376.229 283.060,374.322 280.750,372.193 278.000 C 366.409 270.528,365.419 269.696,364.454 271.500 M219.599 276.864 C 220.801 279.579,222.442 283.150,223.245 284.800 C 224.048 286.450,224.626 287.935,224.529 288.100 C 224.035 288.943,223.087 288.153,221.993 285.987 L 220.775 283.574 216.288 283.687 L 211.801 283.800 210.771 285.710 C 208.768 289.421,207.083 289.382,208.965 285.669 C 209.531 284.553,211.090 281.156,212.431 278.120 C 216.201 269.585,216.363 269.557,219.599 276.864 M236.136 271.840 C 237.169 272.192,238.190 272.808,238.404 273.208 C 238.975 274.275,238.105 274.407,236.200 273.543 C 233.214 272.189,230.112 272.958,229.390 275.230 C 228.828 277.001,230.294 278.118,234.863 279.400 C 239.148 280.603,240.628 283.994,238.100 286.814 C 236.172 288.964,229.933 288.757,227.867 286.474 C 226.663 285.143,227.690 284.738,229.638 285.775 C 233.903 288.045,237.600 287.119,237.600 283.781 C 237.600 282.079,236.767 281.492,233.033 280.560 C 229.271 279.621,227.800 278.303,227.800 275.875 C 227.800 272.095,231.553 270.279,236.136 271.840 M252.026 272.049 C 253.951 272.877,254.558 273.811,253.449 274.237 C 253.146 274.353,252.291 274.078,251.549 273.625 C 247.743 271.305,242.469 274.506,245.351 277.387 C 245.874 277.911,247.089 278.550,248.051 278.809 C 253.460 280.265,255.048 281.601,254.636 284.350 C 254.012 288.522,246.827 289.882,243.121 286.529 C 241.674 285.219,243.019 284.726,245.067 285.815 C 247.646 287.187,249.249 287.404,250.924 286.609 C 254.047 285.127,253.587 282.149,250.068 281.071 C 249.041 280.756,247.418 280.262,246.462 279.972 C 244.667 279.430,242.800 277.532,242.800 276.249 C 242.800 272.260,247.521 270.111,252.026 272.049 M270.428 272.300 C 273.808 274.012,275.559 277.411,274.996 281.166 C 273.608 290.419,260.601 290.976,258.418 281.876 C 256.695 274.691,263.864 268.975,270.428 272.300 M290.040 271.661 C 292.431 272.472,293.764 273.607,293.104 274.268 C 292.617 274.754,292.293 274.692,290.769 273.821 C 284.669 270.334,278.137 276.672,281.235 283.072 C 283.237 287.207,288.082 288.299,291.536 285.393 C 292.869 284.271,294.261 284.922,293.217 286.180 C 290.743 289.161,284.367 289.073,281.309 286.015 C 274.971 279.677,281.590 268.795,290.040 271.661 M299.200 279.843 C 299.200 287.733,299.174 288.000,298.400 288.000 C 297.610 288.000,297.075 272.259,297.839 271.494 C 298.960 270.373,299.200 271.844,299.200 279.843 M312.800 272.369 C 312.800 272.556,313.581 274.395,314.535 276.455 C 315.490 278.515,316.681 281.100,317.182 282.200 C 317.684 283.300,318.458 284.976,318.903 285.924 C 319.468 287.131,319.585 287.775,319.290 288.070 C 318.640 288.720,318.042 288.118,317.001 285.763 L 316.044 283.600 311.722 283.606 C 306.811 283.613,306.842 283.601,305.827 285.902 C 304.954 287.881,304.139 288.699,303.589 288.149 C 303.195 287.755,310.140 272.038,310.934 271.528 C 311.411 271.221,312.800 271.847,312.800 272.369 M332.870 271.910 C 333.692 272.732,332.719 273.200,330.185 273.200 L 327.618 273.200 327.509 280.700 C 327.417 287.052,327.308 288.200,326.800 288.200 C 326.297 288.200,326.163 287.008,325.968 280.800 C 325.694 272.058,326.140 273.200,323.000 273.200 C 320.558 273.200,319.102 272.095,320.804 271.533 C 321.827 271.196,332.488 271.528,332.870 271.910 M355.113 271.821 C 359.426 273.623,361.572 278.813,359.780 283.113 C 356.198 291.711,343.600 289.226,343.600 279.921 C 343.600 273.702,349.567 269.504,355.113 271.821 M367.885 273.503 C 368.938 274.769,371.297 277.739,373.126 280.103 C 374.956 282.466,376.621 284.400,376.826 284.400 C 377.042 284.400,377.200 281.710,377.200 278.024 C 377.200 271.769,377.343 270.947,378.328 271.555 C 378.999 271.970,378.820 288.061,378.141 288.287 C 377.782 288.406,370.743 279.910,368.240 276.336 C 366.875 274.387,366.607 275.183,366.400 281.800 C 366.233 287.133,366.100 288.200,365.600 288.200 C 365.090 288.200,364.984 286.997,364.891 280.211 C 364.750 269.800,364.770 269.755,367.885 273.503 M338.708 279.900 C 338.616 286.963,338.511 288.200,338.000 288.200 C 337.490 288.200,337.388 287.030,337.318 280.400 C 337.229 271.965,337.266 271.600,338.196 271.600 C 338.740 271.600,338.803 272.620,338.708 279.900 M263.648 273.484 C 259.491 275.532,258.627 281.869,262.067 285.081 C 266.595 289.308,273.423 286.062,273.374 279.704 C 273.335 274.703,268.044 271.319,263.648 273.484 M349.011 273.476 C 344.608 275.858,343.836 282.172,347.564 285.308 C 350.958 288.164,355.654 287.279,357.893 283.362 C 361.174 277.626,354.686 270.405,349.011 273.476 M270.244 274.627 C 274.719 277.965,272.968 285.374,267.494 286.262 C 261.489 287.237,258.070 279.247,262.645 274.932 C 264.703 272.991,267.879 272.863,270.244 274.627 M354.983 274.115 C 357.247 275.277,358.751 278.850,358.014 281.313 C 356.204 287.367,348.885 288.194,346.359 282.631 C 343.777 276.947,349.498 271.298,354.983 274.115 M214.392 277.466 C 212.124 282.376,212.131 282.401,215.900 282.394 C 220.370 282.385,220.431 282.299,218.671 278.448 C 217.862 276.679,217.200 275.063,217.200 274.858 C 217.200 273.084,215.828 274.358,214.392 277.466 M309.620 277.358 C 307.280 282.399,307.280 282.400,311.376 282.400 C 315.539 282.400,315.534 282.408,313.762 278.330 C 311.562 273.267,311.522 273.258,309.620 277.358 M216.800 275.594 C 216.800 275.810,217.340 277.102,218.000 278.465 C 219.571 281.708,219.625 281.600,216.424 281.600 C 212.992 281.600,213.008 281.633,214.698 278.100 C 215.937 275.510,216.800 274.481,216.800 275.594 M313.143 278.466 C 314.555 281.622,314.568 281.600,311.333 281.600 C 308.319 281.600,308.294 281.526,310.022 277.752 C 311.406 274.730,311.479 274.747,313.143 278.466 " stroke="none" fill="#97abc5" fill-rule="evenodd"></path><path id="path4" d="M67.039 151.900 C 64.293 168.504,65.628 184.430,71.004 199.200 C 86.799 242.591,142.370 256.832,194.000 230.720 L 197.400 229.000 197.507 219.300 C 197.621 208.951,197.626 208.974,195.662 210.337 C 195.078 210.742,194.060 211.339,193.400 211.663 C 192.740 211.987,191.840 212.463,191.400 212.719 C 184.281 216.872,167.686 222.255,157.180 223.820 C 119.344 229.456,85.933 211.733,73.440 179.400 C 72.845 177.860,72.202 176.240,72.011 175.800 C 71.676 175.026,70.658 170.971,69.451 165.600 C 69.130 164.170,68.757 161.290,68.622 159.200 C 68.047 150.304,67.625 148.358,67.039 151.900 M68.025 156.924 C 68.052 159.671,68.547 164.043,69.142 166.800 C 70.009 170.816,71.274 175.473,71.820 176.660 C 72.139 177.354,72.400 178.031,72.400 178.165 C 72.400 178.418,73.411 180.739,75.047 184.240 C 75.571 185.362,76.000 186.429,76.000 186.612 C 76.000 186.943,78.025 190.248,80.758 194.379 C 82.722 197.346,84.295 199.206,88.221 203.200 C 93.201 208.267,93.028 208.118,99.200 212.688 C 101.609 214.472,110.852 219.217,113.400 219.978 C 114.280 220.241,115.450 220.647,116.000 220.881 C 119.722 222.466,121.678 223.019,126.200 223.768 C 128.400 224.132,131.175 224.604,132.367 224.815 C 135.256 225.328,150.103 225.307,153.723 224.785 C 160.957 223.741,162.447 223.470,166.200 222.518 C 168.400 221.960,170.697 221.415,171.305 221.306 C 171.913 221.197,172.508 220.949,172.629 220.754 C 172.749 220.559,173.263 220.400,173.770 220.400 C 174.695 220.400,175.177 220.229,182.600 217.259 C 188.657 214.836,194.648 211.912,195.689 210.871 C 197.101 209.459,197.218 210.162,197.108 219.439 L 197.000 228.478 194.400 229.832 C 192.970 230.576,191.606 231.346,191.369 231.543 C 191.132 231.741,190.502 232.038,189.969 232.205 C 189.436 232.371,187.200 233.307,185.000 234.286 C 180.192 236.424,170.888 239.600,169.433 239.600 C 168.859 239.600,168.077 239.762,167.695 239.961 C 159.348 244.299,128.200 244.323,117.000 240.000 C 116.560 239.830,115.390 239.470,114.400 239.200 C 113.410 238.930,112.240 238.554,111.800 238.366 C 111.360 238.177,109.339 237.313,107.310 236.445 C 105.280 235.578,103.092 234.493,102.448 234.034 C 101.804 233.575,101.094 233.200,100.871 233.200 C 100.109 233.200,92.209 227.593,89.452 225.095 C 84.555 220.658,78.238 212.794,75.721 208.000 C 75.085 206.790,74.364 205.440,74.117 205.000 C 69.892 197.453,66.965 185.385,66.209 172.400 C 65.990 168.633,66.568 155.798,67.016 154.475 C 67.432 153.248,68.002 154.632,68.025 156.924 M317.700 202.676 C 318.085 202.776,318.715 202.776,319.100 202.676 C 319.485 202.575,319.170 202.493,318.400 202.493 C 317.630 202.493,317.315 202.575,317.700 202.676 " stroke="none" fill="#84ae6e" fill-rule="evenodd"></path></g></svg>