<svg id="svg" version="1.1" xmlns="http://www.w3.org/2000/svg" xmlns:xlink="http://www.w3.org/1999/xlink" width="400" height="400" viewBox="0, 0, 400,400"><g id="svgg"><path id="path0" d="M0.000 200.000 L 0.000 400.000 200.000 400.000 L 400.000 400.000 400.000 200.000 L 400.000 0.000 200.000 0.000 L 0.000 0.000 0.000 200.000 M222.400 17.580 C 226.030 18.007,230.530 18.631,232.400 18.966 C 234.270 19.301,236.430 19.680,237.200 19.808 C 237.970 19.937,239.230 20.204,240.000 20.402 C 240.770 20.599,242.750 21.058,244.400 21.420 C 246.050 21.783,247.940 22.242,248.600 22.440 C 249.260 22.637,251.420 23.265,253.400 23.833 C 259.984 25.724,267.383 28.334,272.600 30.605 C 289.541 37.980,300.950 44.696,315.800 56.033 C 338.893 73.662,358.362 99.578,371.831 130.618 C 373.463 134.379,377.242 145.447,378.585 150.400 C 378.973 151.830,379.435 153.450,379.613 154.000 C 379.790 154.550,380.230 156.350,380.590 158.000 C 380.950 159.650,381.411 161.720,381.614 162.600 C 386.393 183.278,386.393 216.722,381.614 237.400 C 381.411 238.280,380.950 240.350,380.590 242.000 C 380.230 243.650,379.790 245.450,379.613 246.000 C 379.435 246.550,378.973 248.170,378.585 249.600 C 377.242 254.553,373.463 265.621,371.831 269.382 C 358.362 300.422,338.893 326.338,315.800 343.967 C 300.950 355.304,289.541 362.020,272.600 369.395 C 264.342 372.990,250.790 377.305,241.740 379.220 C 193.084 389.516,145.811 381.301,104.000 355.281 C 66.854 332.165,37.293 292.994,25.605 251.400 C 22.691 241.032,20.826 231.886,19.324 220.600 C 18.325 213.094,18.325 186.906,19.324 179.400 C 20.826 168.114,22.691 158.968,25.605 148.600 C 49.350 64.098,134.736 7.251,222.400 17.580 M334.884 174.524 C 334.678 174.786,332.667 179.320,330.415 184.600 C 328.163 189.880,325.996 194.920,325.600 195.800 C 325.204 196.680,323.529 200.640,321.878 204.600 C 319.333 210.708,317.462 215.070,313.728 223.600 C 310.146 231.786,308.529 234.031,305.431 235.122 C 301.392 236.545,302.483 236.800,312.600 236.800 C 322.570 236.800,324.567 236.365,319.371 235.327 C 313.878 234.229,313.748 232.730,318.210 222.000 C 320.981 215.337,319.345 216.000,333.016 216.000 C 346.288 216.000,344.950 215.645,346.572 219.600 C 346.977 220.590,347.623 222.120,348.006 223.000 C 351.621 231.299,351.332 234.629,346.934 235.332 C 346.038 235.476,345.078 235.864,344.803 236.196 C 344.358 236.732,345.633 236.800,356.151 236.800 C 368.721 236.800,371.149 236.316,365.090 235.018 C 363.519 234.681,361.147 232.404,359.811 229.950 C 358.835 228.156,348.059 202.858,346.032 197.600 C 345.650 196.610,345.055 195.170,344.710 194.400 C 344.365 193.630,342.964 190.300,341.597 187.000 C 339.249 181.331,338.772 180.195,337.021 176.124 C 336.248 174.326,335.487 173.757,334.884 174.524 M274.499 175.014 C 263.614 178.440,259.251 191.068,266.052 199.464 C 268.436 202.406,273.606 205.992,282.000 210.524 C 295.167 217.633,298.497 223.014,294.116 230.102 C 289.438 237.670,274.346 236.555,268.350 228.200 C 267.142 226.516,264.800 220.412,264.800 218.946 C 264.800 218.105,263.914 217.420,263.439 217.894 C 262.670 218.663,263.210 238.000,264.000 238.000 C 264.533 238.000,264.800 237.733,264.800 237.200 C 264.800 234.787,267.347 234.272,272.011 235.742 C 273.655 236.259,275.966 236.979,277.146 237.342 C 290.120 241.323,303.005 233.392,302.997 221.432 C 302.990 212.487,300.182 209.558,282.673 200.237 C 269.582 193.268,266.282 187.422,271.905 181.167 C 279.982 172.185,294.578 178.616,297.623 192.500 C 298.758 197.674,299.200 195.461,299.200 184.600 C 299.200 173.812,298.978 172.660,297.497 175.766 C 296.632 177.580,292.339 178.319,291.409 176.814 C 291.293 176.627,290.164 176.169,288.899 175.796 C 287.635 175.422,286.078 174.956,285.440 174.759 C 283.724 174.228,276.458 174.398,274.499 175.014 M127.467 175.867 C 126.841 176.493,127.309 176.801,128.900 176.809 C 132.080 176.825,134.654 178.511,135.543 181.160 C 136.302 183.417,136.177 230.402,135.408 232.242 C 134.430 234.584,132.867 235.415,128.673 235.823 C 128.274 235.862,127.743 236.097,127.493 236.347 C 127.156 236.684,129.720 236.800,137.553 236.800 C 145.720 236.800,148.030 236.690,147.902 236.306 C 147.811 236.034,147.031 235.764,146.169 235.706 C 139.628 235.264,139.823 236.037,139.681 210.005 C 139.541 184.550,139.628 183.659,141.776 188.500 C 142.288 189.655,143.471 192.220,144.404 194.200 C 145.337 196.180,146.414 198.520,146.797 199.400 C 147.742 201.570,149.027 204.375,150.828 208.200 C 151.657 209.960,153.361 213.650,154.614 216.400 C 155.867 219.150,157.305 222.300,157.808 223.400 C 158.312 224.500,159.174 226.403,159.724 227.629 C 164.327 237.887,164.629 238.177,166.468 234.100 C 167.137 232.615,168.049 230.590,168.494 229.600 C 168.939 228.610,169.926 226.450,170.689 224.800 C 171.452 223.150,173.334 219.010,174.872 215.600 C 176.409 212.190,178.089 208.500,178.604 207.400 C 179.119 206.300,180.026 204.320,180.620 203.000 C 187.408 187.915,188.419 185.859,188.844 186.284 C 189.555 186.995,189.306 231.055,188.583 232.580 C 187.837 234.152,185.389 235.600,183.478 235.600 C 181.848 235.600,180.800 235.930,180.800 236.443 C 180.800 236.645,186.287 236.800,193.433 236.800 C 203.362 236.800,206.031 236.693,205.900 236.300 C 205.809 236.025,204.687 235.668,203.407 235.507 C 197.485 234.761,197.800 236.406,197.800 206.218 L 197.800 180.600 198.759 179.255 C 199.919 177.629,201.753 176.800,204.187 176.800 C 205.532 176.800,206.000 176.645,206.000 176.200 C 206.000 175.219,189.961 175.314,189.145 176.300 C 188.419 177.178,186.624 180.952,183.200 188.800 C 182.480 190.450,181.270 193.150,180.511 194.800 C 179.752 196.450,178.800 198.520,178.395 199.400 C 177.990 200.280,176.836 202.766,175.829 204.924 C 174.823 207.082,174.000 208.916,174.000 209.000 C 174.000 209.084,173.173 210.918,172.163 213.076 C 171.152 215.234,170.093 217.540,169.809 218.200 C 167.858 222.735,167.545 223.265,166.949 223.036 C 166.611 222.906,166.259 222.800,166.167 222.800 C 166.075 222.800,166.000 222.601,166.000 222.357 C 166.000 222.114,165.475 220.809,164.834 219.457 C 164.193 218.106,163.135 215.830,162.484 214.400 C 161.832 212.970,160.399 209.910,159.301 207.600 C 158.202 205.290,156.896 202.500,156.398 201.400 C 153.722 195.481,151.545 190.735,149.886 187.200 C 149.111 185.550,147.572 182.265,146.465 179.900 L 144.452 175.600 136.093 175.600 C 131.495 175.600,127.613 175.720,127.467 175.867 M212.300 175.834 C 211.608 176.525,212.122 176.800,214.106 176.800 C 216.724 176.800,218.688 177.798,219.677 179.631 C 220.376 180.928,220.410 182.356,220.308 206.674 L 220.200 232.348 219.034 233.565 C 217.757 234.897,216.077 235.589,213.759 235.738 C 212.932 235.791,212.183 236.051,212.094 236.317 C 211.971 236.688,214.928 236.800,224.816 236.800 C 235.812 236.800,237.630 236.718,237.233 236.240 C 236.978 235.932,236.158 235.680,235.411 235.680 C 229.522 235.680,228.800 233.899,228.800 219.364 C 228.800 207.146,228.632 207.736,231.906 208.437 C 235.025 209.105,244.159 209.105,246.200 208.437 C 263.116 202.905,262.170 181.385,244.800 176.589 C 242.047 175.829,212.980 175.153,212.300 175.834 M240.827 179.926 C 250.484 184.649,250.989 199.896,241.674 205.477 C 239.601 206.719,232.330 207.090,229.900 206.078 L 228.800 205.620 228.800 192.859 C 228.800 183.136,228.919 180.000,229.300 179.687 C 230.760 178.488,238.203 178.642,240.827 179.926 M334.375 190.500 C 336.006 194.127,336.800 196.001,336.800 196.221 C 336.800 196.348,337.250 197.435,337.800 198.637 C 338.350 199.840,338.800 200.926,338.800 201.051 C 338.800 201.177,339.057 201.846,339.371 202.540 C 342.427 209.284,343.662 212.498,343.326 212.834 C 342.851 213.309,323.205 213.365,322.732 212.892 C 322.335 212.495,322.723 211.437,326.293 203.200 C 327.295 200.890,328.341 198.460,328.619 197.800 C 328.897 197.140,329.616 195.430,330.217 194.000 C 330.818 192.570,331.557 190.815,331.860 190.100 C 332.609 188.332,333.461 188.467,334.375 190.500 " stroke="none" fill="#2d568c" fill-rule="evenodd"></path><path id="path1" d="M100.548 165.255 C 96.649 168.506,88.788 175.203,88.400 175.605 C 88.290 175.718,86.400 177.330,84.200 179.186 C 82.000 181.042,80.110 182.659,80.000 182.780 C 79.890 182.901,78.990 183.655,78.000 184.455 C 77.010 185.256,75.814 186.246,75.341 186.655 C 73.014 188.673,64.425 195.952,55.800 203.214 C 43.359 213.691,39.415 217.060,37.425 218.912 L 35.800 220.425 38.589 222.992 C 43.269 227.302,42.262 227.574,49.727 219.977 C 55.848 213.748,68.068 201.041,72.000 196.818 C 74.047 194.619,87.474 180.591,90.800 177.176 C 92.010 175.934,94.980 172.797,97.400 170.206 C 99.820 167.614,102.515 164.808,103.389 163.970 C 106.369 161.112,104.507 161.954,100.548 165.255 M103.874 172.758 C 98.473 178.256,98.702 177.465,100.426 184.673 C 101.101 187.493,101.898 190.970,102.198 192.400 C 102.499 193.830,103.460 197.880,104.335 201.400 C 105.209 204.920,106.049 208.430,106.202 209.200 C 106.354 209.970,107.100 213.210,107.859 216.400 C 108.618 219.590,109.680 224.090,110.218 226.400 C 110.756 228.710,111.366 231.230,111.573 232.000 C 111.780 232.770,112.546 235.948,113.275 239.062 L 114.600 244.724 117.542 245.000 C 119.400 245.174,120.636 245.124,120.896 244.864 C 121.367 244.393,121.285 243.826,114.800 203.000 C 114.381 200.360,113.577 195.230,113.014 191.600 C 111.483 181.725,110.825 177.617,110.420 175.400 C 110.219 174.300,109.942 172.500,109.805 171.400 C 109.258 167.031,109.570 166.960,103.874 172.758 M85.286 191.730 C 80.330 196.753,80.492 196.310,82.197 200.200 C 84.011 204.339,85.709 208.328,86.200 209.600 C 86.497 210.370,87.357 212.440,88.112 214.200 C 88.866 215.960,91.595 222.440,94.175 228.600 C 101.821 246.855,100.855 245.589,106.725 245.070 C 109.478 244.827,109.429 244.931,108.391 241.525 C 106.777 236.231,103.147 225.027,102.583 223.600 C 102.279 222.830,101.848 221.480,101.625 220.600 C 101.403 219.720,99.621 214.140,97.666 208.200 C 95.711 202.260,93.631 195.870,93.044 194.000 C 90.449 185.734,91.033 185.905,85.286 191.730 M67.483 209.836 C 62.769 214.725,62.769 214.725,64.286 216.704 C 64.916 217.527,66.347 219.550,67.466 221.200 C 68.585 222.850,70.792 226.090,72.370 228.400 C 73.948 230.710,77.073 235.345,79.314 238.700 C 83.019 244.248,83.497 244.804,84.594 244.842 C 94.326 245.182,94.187 245.240,92.104 241.713 C 91.222 240.221,89.210 236.570,87.633 233.600 C 86.055 230.630,84.602 227.930,84.404 227.600 C 83.542 226.166,80.760 221.103,78.909 217.600 C 77.804 215.510,76.493 213.080,75.994 212.200 C 75.496 211.320,74.467 209.475,73.707 208.100 C 71.961 204.939,72.294 204.846,67.483 209.836 M50.728 226.814 C 48.568 229.022,46.800 230.966,46.800 231.135 C 46.800 231.303,49.871 234.478,53.625 238.190 L 60.450 244.938 66.284 245.034 C 74.222 245.165,74.212 245.171,71.545 241.997 C 70.365 240.594,68.155 237.905,66.634 236.023 C 65.113 234.140,63.133 231.777,62.234 230.771 C 61.335 229.765,59.446 227.560,58.036 225.871 C 54.876 222.085,55.425 222.014,50.728 226.814 " stroke="none" fill="#97732d" fill-rule="evenodd"></path><path id="path2" d="M188.400 17.643 C 176.002 18.969,173.326 19.345,165.600 20.844 C 160.569 21.821,153.125 23.654,149.600 24.785 C 149.050 24.961,147.520 25.434,146.200 25.835 C 144.880 26.236,143.629 26.707,143.420 26.882 C 143.211 27.057,142.737 27.200,142.366 27.200 C 141.995 27.200,141.176 27.469,140.546 27.798 C 139.916 28.126,139.121 28.396,138.780 28.398 C 138.439 28.399,137.989 28.543,137.780 28.718 C 137.571 28.893,136.680 29.274,135.800 29.564 C 134.920 29.855,133.615 30.341,132.900 30.646 C 132.185 30.951,131.015 31.446,130.300 31.747 C 123.859 34.454,113.947 39.456,109.671 42.155 C 108.761 42.730,107.910 43.200,107.781 43.200 C 107.652 43.200,106.974 43.615,106.273 44.123 C 105.573 44.630,104.325 45.391,103.500 45.814 C 102.675 46.236,102.000 46.721,102.000 46.891 C 102.000 47.061,101.823 47.200,101.606 47.200 C 100.942 47.200,86.216 58.057,83.430 60.600 C 76.327 67.086,74.003 69.296,70.603 72.800 C 68.361 75.110,65.734 77.895,64.764 78.989 C 63.794 80.083,62.669 81.343,62.264 81.789 C 61.860 82.235,60.067 84.490,58.280 86.800 C 56.494 89.110,54.884 91.180,54.704 91.400 C 53.079 93.377,45.150 105.380,44.267 107.200 C 44.106 107.530,43.455 108.700,42.818 109.800 C 42.182 110.900,41.062 112.970,40.331 114.400 C 39.599 115.830,38.910 117.090,38.800 117.200 C 38.003 117.997,32.423 130.982,30.206 137.200 C 29.617 138.850,28.985 140.560,28.801 141.000 C 28.355 142.066,27.598 144.318,27.188 145.800 C 27.005 146.460,26.559 147.990,26.196 149.200 C 25.833 150.410,25.384 152.030,25.198 152.800 C 25.012 153.570,24.564 155.280,24.201 156.600 C 23.839 157.920,23.394 159.810,23.213 160.800 C 23.032 161.790,22.583 164.130,22.215 166.000 C 18.175 186.517,18.175 213.483,22.215 234.000 C 22.583 235.870,23.032 238.210,23.213 239.200 C 23.394 240.190,23.839 242.080,24.201 243.400 C 24.564 244.720,25.012 246.430,25.198 247.200 C 25.384 247.970,25.833 249.590,26.196 250.800 C 26.559 252.010,27.005 253.540,27.188 254.200 C 27.598 255.682,28.355 257.934,28.801 259.000 C 28.985 259.440,29.617 261.150,30.206 262.800 C 32.423 269.018,38.003 282.003,38.800 282.800 C 38.910 282.910,39.599 284.170,40.331 285.600 C 41.062 287.030,42.182 289.100,42.818 290.200 C 43.455 291.300,44.106 292.470,44.267 292.800 C 45.150 294.620,53.079 306.623,54.704 308.600 C 54.884 308.820,56.494 310.890,58.280 313.200 C 60.067 315.510,61.860 317.765,62.264 318.211 C 62.669 318.657,63.794 319.917,64.764 321.011 C 69.368 326.203,79.000 335.649,83.753 339.633 C 84.387 340.165,85.107 340.782,85.353 341.004 C 87.740 343.165,101.014 352.800,101.603 352.800 C 101.821 352.800,102.000 352.939,102.000 353.109 C 102.000 353.279,102.675 353.764,103.500 354.186 C 104.325 354.609,105.573 355.370,106.273 355.877 C 106.974 356.385,107.739 356.800,107.973 356.800 C 108.208 356.800,108.400 356.941,108.400 357.112 C 108.400 357.284,108.895 357.636,109.500 357.894 C 110.105 358.152,111.680 358.990,113.000 359.756 C 114.320 360.521,117.740 362.311,120.600 363.732 C 125.139 365.988,127.232 366.961,130.600 368.381 C 131.040 368.567,132.030 368.986,132.800 369.313 C 133.570 369.640,134.920 370.145,135.800 370.436 C 136.680 370.726,137.571 371.107,137.780 371.282 C 137.989 371.457,138.439 371.601,138.780 371.602 C 139.121 371.604,139.916 371.874,140.546 372.202 C 141.176 372.531,141.995 372.800,142.366 372.800 C 142.737 372.800,143.211 372.943,143.420 373.118 C 143.629 373.293,144.880 373.764,146.200 374.165 C 147.520 374.566,149.050 375.039,149.600 375.215 C 154.548 376.803,161.841 378.491,171.000 380.169 C 187.175 383.133,209.885 383.554,226.000 381.190 C 230.587 380.516,236.000 379.615,238.000 379.190 C 240.765 378.604,245.201 377.626,247.200 377.162 C 251.334 376.203,265.161 371.732,265.780 371.154 C 265.989 370.959,266.563 370.800,267.056 370.800 C 267.549 370.800,268.052 370.640,268.173 370.444 C 268.294 370.249,268.849 369.974,269.407 369.834 C 269.965 369.694,271.452 369.124,272.711 368.567 C 273.970 368.010,275.360 367.402,275.800 367.216 C 284.160 363.681,305.112 351.804,307.600 349.190 C 307.710 349.074,309.150 347.997,310.800 346.796 C 312.450 345.594,314.001 344.429,314.247 344.206 C 314.492 343.983,316.371 342.450,318.422 340.800 C 325.388 335.196,335.220 325.551,340.805 318.844 C 341.792 317.658,342.877 316.398,343.215 316.044 C 343.553 315.690,344.354 314.680,344.994 313.800 C 345.634 312.920,346.271 312.110,346.410 312.000 C 346.850 311.652,354.800 300.439,354.800 300.167 C 354.800 300.024,355.400 299.073,356.133 298.054 C 356.866 297.034,358.127 295.030,358.935 293.600 C 359.743 292.170,360.842 290.280,361.377 289.400 C 362.381 287.749,367.035 278.478,368.103 276.000 C 368.435 275.230,369.067 273.790,369.508 272.800 C 369.949 271.810,370.886 269.560,371.592 267.800 C 372.297 266.040,373.038 264.287,373.237 263.905 C 373.437 263.523,373.600 263.011,373.600 262.766 C 373.600 262.521,373.842 261.754,374.139 261.060 C 374.799 259.516,376.367 255.032,376.817 253.400 C 380.724 239.234,382.361 230.835,383.560 218.800 C 383.812 216.270,384.194 212.546,384.409 210.523 C 384.624 208.501,384.800 203.766,384.800 200.000 C 384.800 196.234,384.624 191.499,384.409 189.477 C 384.194 187.454,383.812 183.730,383.560 181.200 C 382.361 169.165,380.724 160.766,376.817 146.600 C 376.367 144.968,374.799 140.484,374.139 138.940 C 373.842 138.246,373.600 137.479,373.600 137.234 C 373.600 136.989,373.437 136.477,373.237 136.095 C 373.038 135.713,372.297 133.960,371.592 132.200 C 370.886 130.440,369.949 128.190,369.508 127.200 C 369.067 126.210,368.435 124.770,368.103 124.000 C 367.035 121.522,362.381 112.251,361.377 110.600 C 360.842 109.720,359.743 107.830,358.935 106.400 C 358.127 104.970,356.866 102.966,356.133 101.946 C 355.400 100.927,354.800 99.976,354.800 99.833 C 354.800 99.561,346.850 88.348,346.410 88.000 C 346.271 87.890,345.634 87.080,344.994 86.200 C 344.354 85.320,343.553 84.310,343.215 83.956 C 342.877 83.602,341.792 82.342,340.805 81.156 C 335.220 74.449,325.388 64.804,318.422 59.200 C 316.371 57.550,314.492 56.017,314.247 55.794 C 314.001 55.571,312.450 54.406,310.800 53.204 C 309.150 52.003,307.710 50.926,307.600 50.810 C 305.112 48.196,284.160 36.319,275.800 32.784 C 275.360 32.598,273.970 31.990,272.711 31.433 C 271.452 30.876,269.965 30.306,269.407 30.166 C 268.849 30.026,268.294 29.751,268.173 29.556 C 268.052 29.360,267.549 29.200,267.056 29.200 C 266.563 29.200,265.989 29.041,265.780 28.846 C 265.161 28.268,251.334 23.797,247.200 22.838 C 245.201 22.374,240.765 21.396,238.000 20.810 C 233.532 19.862,224.416 18.511,218.600 17.934 C 212.894 17.368,192.785 17.174,188.400 17.643 M111.160 156.500 C 110.391 157.978,101.870 167.066,76.376 193.600 C 66.849 203.515,51.472 219.547,46.737 224.500 C 43.069 228.337,42.689 228.268,36.659 222.688 C 34.365 220.565,34.396 219.975,36.908 217.972 C 37.838 217.230,39.271 216.007,40.091 215.255 C 40.912 214.503,41.992 213.606,42.491 213.262 C 42.991 212.918,43.580 212.437,43.800 212.194 C 44.154 211.802,47.617 208.848,50.357 206.600 C 52.287 205.016,55.427 202.319,56.800 201.064 C 57.570 200.361,60.076 198.259,62.370 196.393 C 64.663 194.527,67.003 192.548,67.570 191.997 C 68.837 190.763,75.310 185.284,76.749 184.229 C 77.671 183.552,83.064 178.968,83.600 178.405 C 83.710 178.290,84.430 177.723,85.200 177.145 C 85.970 176.568,87.243 175.489,88.028 174.748 C 88.814 174.006,89.894 173.057,90.428 172.638 C 91.348 171.916,92.615 170.819,96.242 167.600 C 97.110 166.830,98.625 165.573,99.610 164.806 C 100.594 164.039,101.595 163.229,101.834 163.006 C 102.073 162.783,103.054 161.970,104.014 161.200 C 104.975 160.430,106.309 159.335,106.980 158.766 C 108.156 157.770,111.258 155.600,111.507 155.600 C 111.574 155.600,111.417 156.005,111.160 156.500 M110.079 168.404 C 110.832 172.165,112.390 181.397,112.811 184.600 C 113.072 186.580,113.444 188.740,113.639 189.400 C 113.834 190.060,114.164 192.130,114.373 194.000 C 114.582 195.870,115.023 198.610,115.353 200.089 C 115.684 201.568,116.140 204.448,116.368 206.489 C 116.596 208.530,116.979 211.190,117.219 212.400 C 117.681 214.729,118.415 219.306,120.362 232.000 C 121.020 236.290,121.756 240.831,121.998 242.091 C 122.727 245.894,122.291 246.224,116.800 246.016 C 113.808 245.903,113.288 244.932,111.645 236.400 C 111.454 235.410,110.765 232.530,110.112 230.000 C 109.460 227.470,108.726 224.500,108.481 223.400 C 106.871 216.162,104.132 204.496,102.987 200.000 C 102.623 198.570,102.098 196.230,101.821 194.800 C 101.543 193.370,100.951 190.850,100.506 189.200 C 100.060 187.550,99.483 185.120,99.224 183.800 C 98.964 182.480,98.583 180.847,98.376 180.172 C 97.676 177.885,97.912 177.499,103.300 172.097 C 108.849 166.533,109.621 166.113,110.079 168.404 M286.800 174.253 C 288.010 174.578,289.950 175.283,291.111 175.822 C 294.171 177.240,296.800 176.842,296.800 174.961 C 296.800 174.061,298.429 173.187,299.268 173.637 C 300.397 174.240,300.215 195.060,299.075 195.757 C 298.132 196.333,296.800 194.825,296.800 193.180 C 296.800 181.734,280.596 173.608,272.911 181.200 C 267.683 186.365,270.389 192.429,280.400 197.979 C 281.610 198.650,283.580 199.753,284.778 200.431 C 285.976 201.109,287.956 202.199,289.178 202.853 C 300.493 208.906,304.249 213.823,303.937 222.171 C 303.423 235.902,289.593 242.535,273.057 236.981 C 268.155 235.335,266.847 235.427,265.690 237.500 C 264.659 239.345,263.508 239.724,262.823 238.443 C 262.512 237.862,262.457 219.494,262.759 217.073 C 262.782 216.894,263.295 216.804,263.900 216.873 C 264.908 216.989,265.076 217.269,265.903 220.200 C 266.399 221.960,267.351 224.516,268.017 225.879 C 273.759 237.622,294.800 236.856,294.800 224.904 C 294.800 219.394,292.357 217.069,278.832 209.706 C 274.806 207.514,271.161 205.235,269.200 203.682 C 252.988 190.845,266.212 168.733,286.800 174.253 M336.371 173.585 C 336.767 173.796,337.322 174.561,337.605 175.285 C 338.415 177.353,339.042 178.855,339.917 180.818 C 340.363 181.818,343.193 188.568,346.207 195.818 C 349.220 203.068,352.027 209.709,352.443 210.575 C 352.859 211.441,353.200 212.292,353.200 212.464 C 353.200 212.637,353.630 213.728,354.156 214.889 C 354.682 216.050,355.883 218.890,356.827 221.200 C 360.981 231.374,363.631 234.753,367.486 234.791 C 368.701 234.803,369.486 236.286,368.695 237.076 C 367.832 237.939,344.964 237.936,344.101 237.073 C 343.291 236.263,344.105 234.800,345.365 234.800 C 349.886 234.800,350.826 231.803,348.187 225.800 C 347.072 223.264,346.435 221.745,346.006 220.594 C 345.761 219.937,345.346 218.905,345.083 218.300 L 344.605 217.200 332.968 217.200 L 321.332 217.200 319.866 220.415 C 319.060 222.183,318.400 223.724,318.400 223.840 C 318.400 223.956,317.925 225.075,317.344 226.326 C 315.442 230.424,315.740 234.000,317.982 234.000 C 318.344 234.000,318.811 234.168,319.020 234.373 C 319.229 234.579,320.102 234.804,320.959 234.873 C 322.866 235.028,323.717 236.054,322.745 237.026 C 322.016 237.755,303.411 237.971,302.698 237.258 C 301.749 236.309,302.604 235.132,304.800 234.366 C 307.868 233.295,310.073 230.459,312.392 224.600 C 312.567 224.160,313.360 222.322,314.155 220.516 C 314.950 218.709,315.600 217.147,315.600 217.043 C 315.600 216.940,316.155 215.628,316.833 214.128 C 317.511 212.628,318.411 210.637,318.833 209.704 C 319.255 208.772,319.600 207.905,319.600 207.779 C 319.600 207.652,320.069 206.525,320.643 205.274 C 321.216 204.023,322.015 202.167,322.417 201.150 C 323.121 199.371,323.782 197.854,325.846 193.289 C 326.371 192.128,326.800 190.949,326.800 190.669 C 326.800 190.389,326.951 189.989,327.136 189.780 C 327.321 189.571,328.519 186.880,329.799 183.800 C 331.078 180.720,332.252 178.020,332.407 177.800 C 332.563 177.580,332.800 176.936,332.935 176.369 C 333.167 175.393,334.878 173.200,335.407 173.200 C 335.542 173.200,335.976 173.373,336.371 173.585 M146.600 178.216 C 147.480 179.984,148.626 182.414,149.147 183.616 C 149.668 184.817,150.776 187.240,151.610 189.000 C 152.443 190.760,153.667 193.370,154.329 194.800 C 154.992 196.230,156.246 198.930,157.117 200.800 C 157.988 202.670,159.107 205.100,159.603 206.200 C 161.831 211.136,162.996 213.648,164.638 217.052 C 165.607 219.061,166.400 220.906,166.400 221.152 C 166.400 222.238,167.509 221.450,168.161 219.900 C 169.356 217.058,170.036 215.540,171.613 212.200 C 173.260 208.708,174.997 204.921,176.381 201.800 C 178.274 197.533,178.919 196.115,180.039 193.751 C 180.678 192.404,181.200 191.190,181.200 191.053 C 181.200 190.917,181.988 189.139,182.952 187.102 C 183.915 185.066,185.450 181.780,186.363 179.800 C 187.276 177.820,188.173 175.930,188.355 175.600 C 188.935 174.553,206.935 174.719,207.138 175.774 C 207.345 176.849,206.147 177.600,204.224 177.601 C 201.972 177.601,199.938 178.717,199.119 180.400 C 198.250 182.187,198.088 228.562,198.941 231.391 C 199.604 233.589,201.464 234.800,204.179 234.800 C 206.683 234.800,208.368 236.431,206.840 237.376 C 205.871 237.974,180.654 237.626,180.034 237.005 C 178.939 235.911,179.957 235.017,182.441 234.890 C 188.698 234.572,188.777 234.237,188.790 208.251 C 188.800 187.984,188.645 186.018,187.362 190.136 C 187.214 190.611,186.292 192.710,185.314 194.800 C 184.336 196.890,183.296 199.140,183.003 199.800 C 182.355 201.262,176.769 213.530,174.990 217.400 C 173.585 220.456,172.429 223.003,170.908 226.400 C 166.122 237.082,165.939 237.400,164.585 237.400 C 163.338 237.400,162.916 236.734,159.770 229.800 C 159.171 228.480,158.101 226.140,157.393 224.600 C 154.929 219.245,153.888 216.973,151.803 212.400 C 150.650 209.870,149.122 206.540,148.407 205.000 C 147.693 203.460,146.570 201.030,145.911 199.600 C 143.451 194.254,142.654 192.543,141.641 190.428 L 140.600 188.256 140.483 192.428 C 140.166 203.725,140.612 231.421,141.126 232.321 C 142.027 233.902,143.966 234.797,146.492 234.799 C 148.843 234.800,150.090 236.070,148.905 237.255 C 148.237 237.923,127.558 237.729,126.877 237.048 C 125.762 235.934,126.951 234.800,129.234 234.800 C 131.412 234.800,132.951 234.180,134.201 232.799 C 134.982 231.936,135.000 231.345,135.000 206.353 L 135.000 180.789 133.728 179.601 C 132.583 178.531,131.387 178.079,127.883 177.394 C 126.689 177.161,126.168 176.380,126.548 175.392 C 126.748 174.869,128.045 174.800,135.890 174.892 L 145.000 175.000 146.600 178.216 M243.098 175.405 C 258.899 178.702,264.772 195.103,253.756 205.170 C 248.877 209.630,242.970 210.737,231.462 209.347 L 229.524 209.113 229.667 220.257 C 229.840 233.825,230.224 234.795,235.420 234.799 C 238.008 234.800,239.698 236.616,237.792 237.348 C 236.152 237.977,211.921 237.692,211.264 237.036 C 210.131 235.903,211.131 235.031,213.841 234.790 C 216.665 234.539,217.784 233.974,218.820 232.274 C 219.780 230.700,220.054 183.113,219.118 180.524 C 218.547 178.944,216.143 177.604,213.753 177.534 C 211.261 177.461,209.573 175.762,211.300 175.065 C 212.650 174.520,240.273 174.816,243.098 175.405 M232.400 179.866 C 231.850 179.953,230.995 180.112,230.500 180.220 L 229.600 180.415 229.600 192.398 L 229.600 204.382 230.631 205.057 C 234.545 207.622,243.520 204.809,245.860 200.285 C 251.361 189.646,243.737 178.081,232.400 179.866 M93.206 191.200 C 93.932 193.510,95.380 198.010,96.424 201.200 C 100.334 213.148,102.083 218.664,102.641 220.800 C 102.956 222.010,103.466 223.540,103.774 224.200 C 104.081 224.860,105.273 228.370,106.423 232.000 C 107.572 235.630,108.972 239.979,109.534 241.665 C 110.925 245.838,110.772 246.000,105.440 246.000 C 101.077 246.000,99.600 245.489,99.600 243.977 C 99.600 243.550,99.420 243.200,99.200 243.200 C 98.980 243.200,98.800 242.918,98.800 242.574 C 98.800 242.230,98.350 240.965,97.800 239.763 C 97.250 238.560,96.800 237.399,96.800 237.183 C 96.800 236.966,96.627 236.477,96.416 236.095 C 96.205 235.713,95.474 234.050,94.791 232.400 C 93.418 229.079,91.948 225.543,90.800 222.800 C 89.913 220.681,87.414 214.912,86.348 212.522 C 85.937 211.599,85.600 210.733,85.600 210.597 C 85.600 210.461,85.168 209.416,84.639 208.275 C 84.111 207.134,83.282 205.210,82.798 204.000 C 81.566 200.925,80.794 199.116,80.366 198.305 C 79.515 196.691,80.035 195.797,84.516 191.167 C 91.139 184.323,91.046 184.323,93.206 191.200 M332.400 190.822 C 332.400 191.193,330.347 196.138,327.926 201.600 C 327.487 202.590,326.974 203.760,326.786 204.200 C 325.774 206.566,324.809 208.806,324.075 210.492 C 323.002 212.959,322.596 212.855,333.006 212.769 C 342.883 212.687,342.823 212.705,341.774 210.265 C 341.381 209.349,340.720 207.790,340.307 206.800 C 339.894 205.810,339.404 204.640,339.219 204.200 C 339.033 203.760,338.581 202.680,338.214 201.800 C 337.846 200.920,337.354 199.750,337.119 199.200 C 336.885 198.650,336.547 197.840,336.369 197.400 C 336.191 196.960,335.610 195.610,335.078 194.400 C 334.546 193.190,333.983 191.795,333.828 191.300 C 333.547 190.403,332.400 190.019,332.400 190.822 M75.558 209.359 C 76.524 211.142,78.125 214.130,79.114 216.000 C 80.103 217.870,81.215 219.850,81.584 220.400 C 81.954 220.950,82.944 222.794,83.785 224.498 C 84.626 226.202,85.558 227.799,85.857 228.047 C 86.156 228.295,86.400 228.763,86.400 229.087 C 86.400 229.411,86.728 230.154,87.130 230.738 C 87.531 231.322,88.426 232.909,89.119 234.264 C 89.812 235.619,91.284 238.300,92.390 240.221 C 95.545 245.704,95.350 246.000,88.596 246.000 C 83.452 246.000,82.940 245.847,81.694 243.934 C 81.312 243.347,79.560 240.760,77.800 238.184 C 76.040 235.609,73.940 232.488,73.133 231.251 C 72.326 230.013,71.508 228.820,71.316 228.600 C 70.393 227.544,62.000 214.704,62.000 214.348 C 62.000 213.685,70.927 204.905,71.800 204.710 C 72.767 204.493,73.230 205.066,75.558 209.359 M55.814 221.906 C 56.042 222.068,59.840 226.520,64.253 231.800 C 68.667 237.080,72.845 242.004,73.539 242.742 C 76.120 245.490,75.276 245.944,67.340 246.081 L 60.927 246.192 59.508 245.110 C 57.222 243.366,45.800 231.617,45.800 231.009 C 45.800 230.462,52.647 223.233,54.187 222.154 C 55.089 221.522,55.241 221.499,55.814 221.906 " stroke="none" fill="#fbfbfb" fill-rule="evenodd"></path><path id="path3" d="M191.800 16.648 C 115.500 20.198,46.232 75.194,25.605 148.600 C 22.691 158.968,20.826 168.114,19.324 179.400 C 18.325 186.906,18.325 213.094,19.324 220.600 C 20.826 231.886,22.691 241.032,25.605 251.400 C 51.445 343.358,146.254 399.427,241.740 379.220 C 250.790 377.305,264.342 372.990,272.600 369.395 C 289.541 362.020,300.950 355.304,315.800 343.967 C 338.893 326.338,358.362 300.422,371.831 269.382 C 373.463 265.621,377.242 254.553,378.585 249.600 C 378.973 248.170,379.435 246.550,379.613 246.000 C 379.790 245.450,380.230 243.650,380.590 242.000 C 380.950 240.350,381.411 238.280,381.614 237.400 C 386.393 216.722,386.393 183.278,381.614 162.600 C 381.411 161.720,380.950 159.650,380.590 158.000 C 380.230 156.350,379.790 154.550,379.613 154.000 C 379.435 153.450,378.973 151.830,378.585 150.400 C 377.242 145.447,373.463 134.379,371.831 130.618 C 358.362 99.578,338.893 73.662,315.800 56.033 C 300.950 44.696,289.541 37.980,272.600 30.605 C 267.383 28.334,259.984 25.724,253.400 23.833 C 251.420 23.265,249.260 22.637,248.600 22.440 C 247.940 22.242,246.050 21.783,244.400 21.420 C 242.750 21.058,240.770 20.599,240.000 20.402 C 239.230 20.204,237.970 19.937,237.200 19.808 C 236.430 19.680,234.270 19.301,232.400 18.966 C 222.198 17.140,203.804 16.090,191.800 16.648 M218.600 17.934 C 224.416 18.511,233.532 19.862,238.000 20.810 C 240.765 21.396,245.201 22.374,247.200 22.838 C 251.334 23.797,265.161 28.268,265.780 28.846 C 265.989 29.041,266.563 29.200,267.056 29.200 C 267.549 29.200,268.052 29.360,268.173 29.556 C 268.294 29.751,268.849 30.026,269.407 30.166 C 269.965 30.306,271.452 30.876,272.711 31.433 C 273.970 31.990,275.360 32.598,275.800 32.784 C 284.160 36.319,305.112 48.196,307.600 50.810 C 307.710 50.926,309.150 52.003,310.800 53.204 C 312.450 54.406,314.001 55.571,314.247 55.794 C 314.492 56.017,316.371 57.550,318.422 59.200 C 325.388 64.804,335.220 74.449,340.805 81.156 C 341.792 82.342,342.877 83.602,343.215 83.956 C 343.553 84.310,344.354 85.320,344.994 86.200 C 345.634 87.080,346.271 87.890,346.410 88.000 C 346.850 88.348,354.800 99.561,354.800 99.833 C 354.800 99.976,355.400 100.927,356.133 101.946 C 356.866 102.966,358.127 104.970,358.935 106.400 C 359.743 107.830,360.842 109.720,361.377 110.600 C 362.381 112.251,367.035 121.522,368.103 124.000 C 368.435 124.770,369.067 126.210,369.508 127.200 C 369.949 128.190,370.886 130.440,371.592 132.200 C 372.297 133.960,373.038 135.713,373.237 136.095 C 373.437 136.477,373.600 136.989,373.600 137.234 C 373.600 137.479,373.842 138.246,374.139 138.940 C 374.799 140.484,376.367 144.968,376.817 146.600 C 380.724 160.766,382.361 169.165,383.560 181.200 C 383.812 183.730,384.194 187.454,384.409 189.477 C 384.624 191.499,384.800 196.234,384.800 200.000 C 384.800 203.766,384.624 208.501,384.409 210.523 C 384.194 212.546,383.812 216.270,383.560 218.800 C 382.361 230.835,380.724 239.234,376.817 253.400 C 376.367 255.032,374.799 259.516,374.139 261.060 C 373.842 261.754,373.600 262.521,373.600 262.766 C 373.600 263.011,373.437 263.523,373.237 263.905 C 373.038 264.287,372.297 266.040,371.592 267.800 C 370.886 269.560,369.949 271.810,369.508 272.800 C 369.067 273.790,368.435 275.230,368.103 276.000 C 367.035 278.478,362.381 287.749,361.377 289.400 C 360.842 290.280,359.743 292.170,358.935 293.600 C 358.127 295.030,356.866 297.034,356.133 298.054 C 355.400 299.073,354.800 300.024,354.800 300.167 C 354.800 300.439,346.850 311.652,346.410 312.000 C 346.271 312.110,345.634 312.920,344.994 313.800 C 344.354 314.680,343.553 315.690,343.215 316.044 C 342.877 316.398,341.792 317.658,340.805 318.844 C 335.220 325.551,325.388 335.196,318.422 340.800 C 316.371 342.450,314.492 343.983,314.247 344.206 C 314.001 344.429,312.450 345.594,310.800 346.796 C 309.150 347.997,307.710 349.074,307.600 349.190 C 305.112 351.804,284.160 363.681,275.800 367.216 C 275.360 367.402,273.970 368.010,272.711 368.567 C 271.452 369.124,269.965 369.694,269.407 369.834 C 268.849 369.974,268.294 370.249,268.173 370.444 C 268.052 370.640,267.549 370.800,267.056 370.800 C 266.563 370.800,265.989 370.959,265.780 371.154 C 265.161 371.732,251.334 376.203,247.200 377.162 C 245.201 377.626,240.765 378.604,238.000 379.190 C 220.036 383.001,199.981 383.742,179.400 381.358 C 169.906 380.258,157.076 377.613,149.600 375.215 C 149.050 375.039,147.520 374.566,146.200 374.165 C 144.880 373.764,143.629 373.293,143.420 373.118 C 143.211 372.943,142.737 372.800,142.366 372.800 C 141.995 372.800,141.176 372.531,140.546 372.202 C 139.916 371.874,139.121 371.604,138.780 371.602 C 138.439 371.601,137.989 371.457,137.780 371.282 C 137.571 371.107,136.680 370.726,135.800 370.436 C 134.920 370.145,133.570 369.640,132.800 369.313 C 132.030 368.986,131.040 368.567,130.600 368.381 C 127.232 366.961,125.139 365.988,120.600 363.732 C 117.740 362.311,114.320 360.521,113.000 359.756 C 111.680 358.990,110.105 358.152,109.500 357.894 C 108.895 357.636,108.400 357.284,108.400 357.112 C 108.400 356.941,108.208 356.800,107.973 356.800 C 107.739 356.800,106.974 356.385,106.273 355.877 C 105.573 355.370,104.325 354.609,103.500 354.186 C 102.675 353.764,102.000 353.279,102.000 353.109 C 102.000 352.939,101.821 352.800,101.603 352.800 C 101.014 352.800,87.740 343.165,85.353 341.004 C 85.107 340.782,84.387 340.165,83.753 339.633 C 79.000 335.649,69.368 326.203,64.764 321.011 C 63.794 319.917,62.669 318.657,62.264 318.211 C 61.860 317.765,60.067 315.510,58.280 313.200 C 56.494 310.890,54.884 308.820,54.704 308.600 C 53.079 306.623,45.150 294.620,44.267 292.800 C 44.106 292.470,43.455 291.300,42.818 290.200 C 42.182 289.100,41.062 287.030,40.331 285.600 C 39.599 284.170,38.910 282.910,38.800 282.800 C 38.003 282.003,32.423 269.018,30.206 262.800 C 29.617 261.150,28.985 259.440,28.801 259.000 C 28.355 257.934,27.598 255.682,27.188 254.200 C 27.005 253.540,26.559 252.010,26.196 250.800 C 25.833 249.590,25.384 247.970,25.198 247.200 C 25.012 246.430,24.564 244.720,24.201 243.400 C 23.839 242.080,23.394 240.190,23.213 239.200 C 23.032 238.210,22.583 235.870,22.215 234.000 C 18.175 213.483,18.175 186.517,22.215 166.000 C 22.583 164.130,23.032 161.790,23.213 160.800 C 23.394 159.810,23.839 157.920,24.201 156.600 C 24.564 155.280,25.012 153.570,25.198 152.800 C 25.384 152.030,25.833 150.410,26.196 149.200 C 26.559 147.990,27.005 146.460,27.188 145.800 C 27.598 144.318,28.355 142.066,28.801 141.000 C 28.985 140.560,29.617 138.850,30.206 137.200 C 32.423 130.982,38.003 117.997,38.800 117.200 C 38.910 117.090,39.599 115.830,40.331 114.400 C 41.062 112.970,42.182 110.900,42.818 109.800 C 43.455 108.700,44.106 107.530,44.267 107.200 C 45.150 105.380,53.079 93.377,54.704 91.400 C 54.884 91.180,56.494 89.110,58.280 86.800 C 60.067 84.490,61.860 82.235,62.264 81.789 C 62.669 81.343,63.794 80.083,64.764 78.989 C 65.734 77.895,68.361 75.110,70.603 72.800 C 74.003 69.296,76.327 67.086,83.430 60.600 C 86.216 58.057,100.942 47.200,101.606 47.200 C 101.823 47.200,102.000 47.061,102.000 46.891 C 102.000 46.721,102.675 46.236,103.500 45.814 C 104.325 45.391,105.573 44.630,106.273 44.123 C 106.974 43.615,107.652 43.200,107.781 43.200 C 107.910 43.200,108.761 42.730,109.671 42.155 C 113.947 39.456,123.859 34.454,130.300 31.747 C 131.015 31.446,132.185 30.951,132.900 30.646 C 133.615 30.341,134.920 29.855,135.800 29.564 C 136.680 29.274,137.571 28.893,137.780 28.718 C 137.989 28.543,138.439 28.399,138.780 28.398 C 139.121 28.396,139.916 28.126,140.546 27.798 C 141.176 27.469,141.995 27.200,142.366 27.200 C 142.737 27.200,143.211 27.057,143.420 26.882 C 143.629 26.707,144.880 26.236,146.200 25.835 C 147.520 25.434,149.050 24.961,149.600 24.785 C 153.125 23.654,160.569 21.821,165.600 20.844 C 173.326 19.345,176.002 18.969,188.400 17.643 C 192.785 17.174,212.894 17.368,218.600 17.934 M277.544 173.665 C 265.920 174.766,258.549 186.909,263.495 196.809 C 265.890 201.604,269.455 204.601,278.832 209.706 C 292.357 217.069,294.800 219.394,294.800 224.904 C 294.800 236.856,273.759 237.622,268.017 225.879 C 267.351 224.516,266.399 221.960,265.903 220.200 C 265.076 217.269,264.908 216.989,263.900 216.873 C 263.295 216.804,262.782 216.894,262.759 217.073 C 262.457 219.494,262.512 237.862,262.823 238.443 C 263.508 239.724,264.659 239.345,265.690 237.500 C 266.847 235.427,268.155 235.335,273.057 236.981 C 289.593 242.535,303.423 235.902,303.937 222.171 C 304.249 213.823,300.493 208.906,289.178 202.853 C 287.956 202.199,285.976 201.109,284.778 200.431 C 283.580 199.753,281.610 198.650,280.400 197.979 C 270.389 192.429,267.683 186.365,272.911 181.200 C 280.596 173.608,296.800 181.734,296.800 193.180 C 296.800 194.825,298.132 196.333,299.075 195.757 C 300.215 195.060,300.397 174.240,299.268 173.637 C 298.429 173.187,296.800 174.061,296.800 174.961 C 296.800 176.842,294.171 177.240,291.111 175.822 C 286.721 173.787,282.812 173.166,277.544 173.665 M334.171 174.269 C 333.626 174.857,333.070 175.802,332.935 176.369 C 332.800 176.936,332.563 177.580,332.407 177.800 C 332.252 178.020,331.078 180.720,329.799 183.800 C 328.519 186.880,327.321 189.571,327.136 189.780 C 326.951 189.989,326.800 190.389,326.800 190.669 C 326.800 190.949,326.371 192.128,325.846 193.289 C 323.782 197.854,323.121 199.371,322.417 201.150 C 322.015 202.167,321.216 204.023,320.643 205.274 C 320.069 206.525,319.600 207.652,319.600 207.779 C 319.600 207.905,319.255 208.772,318.833 209.704 C 318.411 210.637,317.511 212.628,316.833 214.128 C 316.155 215.628,315.600 216.940,315.600 217.043 C 315.600 217.147,314.950 218.709,314.155 220.516 C 313.360 222.322,312.567 224.160,312.392 224.600 C 310.073 230.459,307.868 233.295,304.800 234.366 C 302.604 235.132,301.749 236.309,302.698 237.258 C 303.411 237.971,322.016 237.755,322.745 237.026 C 323.717 236.054,322.866 235.028,320.959 234.873 C 320.102 234.804,319.229 234.579,319.020 234.373 C 318.811 234.168,318.344 234.000,317.982 234.000 C 315.740 234.000,315.442 230.424,317.344 226.326 C 317.925 225.075,318.400 223.956,318.400 223.840 C 318.400 223.724,319.060 222.183,319.866 220.415 L 321.332 217.200 332.968 217.200 L 344.605 217.200 345.083 218.300 C 345.346 218.905,345.761 219.937,346.006 220.594 C 346.435 221.745,347.072 223.264,348.187 225.800 C 350.826 231.803,349.886 234.800,345.365 234.800 C 344.105 234.800,343.291 236.263,344.101 237.073 C 344.964 237.936,367.832 237.939,368.695 237.076 C 369.486 236.286,368.701 234.803,367.486 234.791 C 363.631 234.753,360.981 231.374,356.827 221.200 C 355.883 218.890,354.682 216.050,354.156 214.889 C 353.630 213.728,353.200 212.637,353.200 212.464 C 353.200 212.292,352.859 211.441,352.443 210.575 C 352.027 209.709,349.220 203.068,346.207 195.818 C 343.193 188.568,340.363 181.818,339.917 180.818 C 339.042 178.855,338.415 177.353,337.605 175.285 C 337.155 174.135,336.169 173.200,335.407 173.200 C 335.272 173.200,334.716 173.681,334.171 174.269 M337.021 176.124 C 338.772 180.195,339.249 181.331,341.597 187.000 C 342.964 190.300,344.365 193.630,344.710 194.400 C 345.055 195.170,345.650 196.610,346.032 197.600 C 348.059 202.858,358.835 228.156,359.811 229.950 C 361.147 232.404,363.519 234.681,365.090 235.018 C 371.149 236.316,368.721 236.800,356.151 236.800 C 345.633 236.800,344.358 236.732,344.803 236.196 C 345.078 235.864,346.038 235.476,346.934 235.332 C 351.332 234.629,351.621 231.299,348.006 223.000 C 347.623 222.120,346.977 220.590,346.572 219.600 C 344.950 215.645,346.288 216.000,333.016 216.000 C 319.345 216.000,320.981 215.337,318.210 222.000 C 313.748 232.730,313.878 234.229,319.371 235.327 C 324.567 236.365,322.570 236.800,312.600 236.800 C 302.483 236.800,301.392 236.545,305.431 235.122 C 308.529 234.031,310.146 231.786,313.728 223.600 C 317.462 215.070,319.333 210.708,321.878 204.600 C 323.529 200.640,325.204 196.680,325.600 195.800 C 325.996 194.920,328.163 189.880,330.415 184.600 C 335.526 172.617,335.517 172.628,337.021 176.124 M285.440 174.759 C 286.078 174.956,287.635 175.422,288.899 175.796 C 290.164 176.169,291.293 176.627,291.409 176.814 C 292.339 178.319,296.632 177.580,297.497 175.766 C 298.978 172.660,299.200 173.812,299.200 184.600 C 299.200 195.461,298.758 197.674,297.623 192.500 C 294.578 178.616,279.982 172.185,271.905 181.167 C 266.282 187.422,269.582 193.268,282.673 200.237 C 300.182 209.558,302.990 212.487,302.997 221.432 C 303.005 233.392,290.120 241.323,277.146 237.342 C 275.966 236.979,273.655 236.259,272.011 235.742 C 267.347 234.272,264.800 234.787,264.800 237.200 C 264.800 237.733,264.533 238.000,264.000 238.000 C 263.210 238.000,262.670 218.663,263.439 217.894 C 263.914 217.420,264.800 218.105,264.800 218.946 C 264.800 220.412,267.142 226.516,268.350 228.200 C 274.346 236.555,289.438 237.670,294.116 230.102 C 298.497 223.014,295.167 217.633,282.000 210.524 C 273.606 205.992,268.436 202.406,266.052 199.464 C 259.251 191.068,263.614 178.440,274.499 175.014 C 276.458 174.398,283.724 174.228,285.440 174.759 M126.548 175.392 C 126.168 176.380,126.689 177.161,127.883 177.394 C 131.387 178.079,132.583 178.531,133.728 179.601 L 135.000 180.789 135.000 206.353 C 135.000 231.345,134.982 231.936,134.201 232.799 C 132.951 234.180,131.412 234.800,129.234 234.800 C 126.951 234.800,125.762 235.934,126.877 237.048 C 127.558 237.729,148.237 237.923,148.905 237.255 C 150.090 236.070,148.843 234.800,146.492 234.799 C 143.966 234.797,142.027 233.902,141.126 232.321 C 140.612 231.421,140.166 203.725,140.483 192.428 L 140.600 188.256 141.641 190.428 C 142.654 192.543,143.451 194.254,145.911 199.600 C 146.570 201.030,147.693 203.460,148.407 205.000 C 149.122 206.540,150.650 209.870,151.803 212.400 C 153.888 216.973,154.929 219.245,157.393 224.600 C 158.101 226.140,159.171 228.480,159.770 229.800 C 162.916 236.734,163.338 237.400,164.585 237.400 C 165.939 237.400,166.122 237.082,170.908 226.400 C 172.429 223.003,173.585 220.456,174.990 217.400 C 176.769 213.530,182.355 201.262,183.003 199.800 C 183.296 199.140,184.336 196.890,185.314 194.800 C 186.292 192.710,187.214 190.611,187.362 190.136 C 188.645 186.018,188.800 187.984,188.790 208.251 C 188.777 234.237,188.698 234.572,182.441 234.890 C 179.957 235.017,178.939 235.911,180.034 237.005 C 180.654 237.626,205.871 237.974,206.840 237.376 C 208.368 236.431,206.683 234.800,204.179 234.800 C 201.464 234.800,199.604 233.589,198.941 231.391 C 198.088 228.562,198.250 182.187,199.119 180.400 C 199.938 178.717,201.972 177.601,204.224 177.601 C 206.147 177.600,207.345 176.849,207.138 175.774 C 206.935 174.719,188.935 174.553,188.355 175.600 C 188.173 175.930,187.276 177.820,186.363 179.800 C 185.450 181.780,183.915 185.066,182.952 187.102 C 181.988 189.139,181.200 190.917,181.200 191.053 C 181.200 191.190,180.678 192.404,180.039 193.751 C 178.919 196.115,178.274 197.533,176.381 201.800 C 174.997 204.921,173.260 208.708,171.613 212.200 C 170.036 215.540,169.356 217.058,168.161 219.900 C 167.509 221.450,166.400 222.238,166.400 221.152 C 166.400 220.906,165.607 219.061,164.638 217.052 C 162.996 213.648,161.831 211.136,159.603 206.200 C 159.107 205.100,157.988 202.670,157.117 200.800 C 156.246 198.930,154.992 196.230,154.329 194.800 C 153.667 193.370,152.443 190.760,151.610 189.000 C 150.776 187.240,149.668 184.817,149.147 183.616 C 148.626 182.414,147.480 179.984,146.600 178.216 L 145.000 175.000 135.890 174.892 C 128.045 174.800,126.748 174.869,126.548 175.392 M211.300 175.065 C 209.573 175.762,211.261 177.461,213.753 177.534 C 216.143 177.604,218.547 178.944,219.118 180.524 C 220.054 183.113,219.780 230.700,218.820 232.274 C 217.784 233.974,216.665 234.539,213.841 234.790 C 211.131 235.031,210.131 235.903,211.264 237.036 C 211.921 237.692,236.152 237.977,237.792 237.348 C 239.698 236.616,238.008 234.800,235.420 234.799 C 230.224 234.795,229.840 233.825,229.667 220.257 L 229.524 209.113 231.462 209.347 C 242.970 210.737,248.877 209.630,253.756 205.170 C 260.577 198.937,261.066 187.876,254.800 181.595 C 248.636 175.417,245.958 174.788,226.000 174.832 C 218.190 174.849,211.575 174.954,211.300 175.065 M146.465 179.900 C 147.572 182.265,149.111 185.550,149.886 187.200 C 151.545 190.735,153.722 195.481,156.398 201.400 C 156.896 202.500,158.202 205.290,159.301 207.600 C 160.399 209.910,161.832 212.970,162.484 214.400 C 163.135 215.830,164.193 218.106,164.834 219.457 C 165.475 220.809,166.000 222.114,166.000 222.357 C 166.000 222.601,166.075 222.800,166.167 222.800 C 166.259 222.800,166.611 222.906,166.949 223.036 C 167.545 223.265,167.858 222.735,169.809 218.200 C 170.093 217.540,171.152 215.234,172.163 213.076 C 173.173 210.918,174.000 209.084,174.000 209.000 C 174.000 208.916,174.823 207.082,175.829 204.924 C 176.836 202.766,177.990 200.280,178.395 199.400 C 178.800 198.520,179.752 196.450,180.511 194.800 C 181.270 193.150,182.480 190.450,183.200 188.800 C 186.624 180.952,188.419 177.178,189.145 176.300 C 189.961 175.314,206.000 175.219,206.000 176.200 C 206.000 176.645,205.532 176.800,204.187 176.800 C 201.753 176.800,199.919 177.629,198.759 179.255 L 197.800 180.600 197.800 206.218 C 197.800 236.406,197.485 234.761,203.407 235.507 C 204.687 235.668,205.809 236.025,205.900 236.300 C 206.031 236.693,203.362 236.800,193.433 236.800 C 186.287 236.800,180.800 236.645,180.800 236.443 C 180.800 235.930,181.848 235.600,183.478 235.600 C 185.389 235.600,187.837 234.152,188.583 232.580 C 189.306 231.055,189.555 186.995,188.844 186.284 C 188.419 185.859,187.408 187.915,180.620 203.000 C 180.026 204.320,179.119 206.300,178.604 207.400 C 178.089 208.500,176.409 212.190,174.872 215.600 C 173.334 219.010,171.452 223.150,170.689 224.800 C 169.926 226.450,168.939 228.610,168.494 229.600 C 164.296 238.941,164.856 239.067,159.724 227.629 C 159.174 226.403,158.312 224.500,157.808 223.400 C 157.305 222.300,155.867 219.150,154.614 216.400 C 153.361 213.650,151.657 209.960,150.828 208.200 C 149.027 204.375,147.742 201.570,146.797 199.400 C 146.414 198.520,145.337 196.180,144.404 194.200 C 143.471 192.220,142.288 189.655,141.776 188.500 C 139.628 183.659,139.541 184.550,139.681 210.005 C 139.823 236.037,139.628 235.264,146.169 235.706 C 147.031 235.764,147.811 236.034,147.902 236.306 C 148.030 236.690,145.720 236.800,137.553 236.800 C 129.720 236.800,127.156 236.684,127.493 236.347 C 127.743 236.097,128.274 235.862,128.673 235.823 C 132.867 235.415,134.430 234.584,135.408 232.242 C 136.177 230.402,136.302 183.417,135.543 181.160 C 134.654 178.511,132.080 176.825,128.900 176.809 C 127.309 176.801,126.841 176.493,127.467 175.867 C 127.613 175.720,131.495 175.600,136.093 175.600 L 144.452 175.600 146.465 179.900 M244.800 176.589 C 262.170 181.385,263.116 202.905,246.200 208.437 C 244.159 209.105,235.025 209.105,231.906 208.437 C 228.632 207.736,228.800 207.146,228.800 219.364 C 228.800 233.899,229.522 235.680,235.411 235.680 C 236.158 235.680,236.978 235.932,237.233 236.240 C 237.630 236.718,235.812 236.800,224.816 236.800 C 214.928 236.800,211.971 236.688,212.094 236.317 C 212.183 236.051,212.932 235.791,213.759 235.738 C 216.077 235.589,217.757 234.897,219.034 233.565 L 220.200 232.348 220.308 206.674 C 220.410 182.356,220.376 180.928,219.677 179.631 C 218.688 177.798,216.724 176.800,214.106 176.800 C 212.122 176.800,211.608 176.525,212.300 175.834 C 212.980 175.153,242.047 175.829,244.800 176.589 M230.800 179.075 C 228.767 179.485,228.800 179.256,228.800 192.859 L 228.800 205.620 229.900 206.078 C 232.330 207.090,239.601 206.719,241.674 205.477 C 250.989 199.896,250.484 184.649,240.827 179.926 C 239.001 179.033,233.378 178.556,230.800 179.075 M238.200 180.028 C 249.464 183.008,251.059 200.304,240.509 205.062 C 238.400 206.013,232.086 206.010,230.631 205.057 L 229.600 204.382 229.600 192.398 L 229.600 180.415 230.500 180.220 C 233.582 179.550,236.151 179.486,238.200 180.028 M331.860 190.100 C 331.557 190.815,330.818 192.570,330.217 194.000 C 329.616 195.430,328.897 197.140,328.619 197.800 C 328.341 198.460,327.295 200.890,326.293 203.200 C 322.723 211.437,322.335 212.495,322.732 212.892 C 323.205 213.365,342.851 213.309,343.326 212.834 C 343.662 212.498,342.427 209.284,339.371 202.540 C 339.057 201.846,338.800 201.177,338.800 201.051 C 338.800 200.926,338.350 199.840,337.800 198.637 C 337.250 197.435,336.800 196.348,336.800 196.221 C 336.800 196.001,336.006 194.127,334.375 190.500 C 333.461 188.467,332.609 188.332,331.860 190.100 M333.828 191.300 C 333.983 191.795,334.546 193.190,335.078 194.400 C 335.610 195.610,336.191 196.960,336.369 197.400 C 336.547 197.840,336.885 198.650,337.119 199.200 C 337.354 199.750,337.846 200.920,338.214 201.800 C 338.581 202.680,339.033 203.760,339.219 204.200 C 339.404 204.640,339.894 205.810,340.307 206.800 C 340.720 207.790,341.381 209.349,341.774 210.265 C 342.823 212.705,342.883 212.687,333.006 212.769 C 322.596 212.855,323.002 212.959,324.075 210.492 C 324.809 208.806,325.774 206.566,326.786 204.200 C 326.974 203.760,327.487 202.590,327.926 201.600 C 330.347 196.138,332.400 191.193,332.400 190.822 C 332.400 190.019,333.547 190.403,333.828 191.300 " stroke="none" fill="#a8c0d6" fill-rule="evenodd"></path><path id="path4" d="M109.400 156.891 C 108.740 157.367,107.651 158.217,106.980 158.778 C 106.309 159.340,104.975 160.430,104.014 161.200 C 103.054 161.970,102.073 162.783,101.834 163.006 C 101.595 163.229,100.594 164.039,99.610 164.806 C 98.625 165.573,97.110 166.830,96.242 167.600 C 92.615 170.819,91.348 171.916,90.428 172.638 C 89.894 173.057,88.814 174.006,88.028 174.748 C 87.243 175.489,85.970 176.568,85.200 177.145 C 84.430 177.723,83.710 178.290,83.600 178.405 C 83.064 178.968,77.671 183.552,76.749 184.229 C 75.310 185.284,68.837 190.763,67.570 191.997 C 67.003 192.548,64.663 194.527,62.370 196.393 C 60.076 198.259,57.570 200.361,56.800 201.064 C 55.427 202.319,52.287 205.016,50.357 206.600 C 47.617 208.848,44.154 211.802,43.800 212.194 C 43.580 212.437,42.991 212.918,42.491 213.262 C 41.992 213.606,40.912 214.503,40.091 215.255 C 39.271 216.007,37.838 217.230,36.908 217.972 C 34.396 219.975,34.365 220.565,36.659 222.688 C 42.689 228.268,43.069 228.337,46.737 224.500 C 51.472 219.547,66.849 203.515,76.376 193.600 C 102.695 166.207,111.200 157.125,111.200 156.410 C 111.200 155.802,110.738 155.926,109.400 156.891 M103.389 163.970 C 102.515 164.808,99.820 167.614,97.400 170.206 C 94.980 172.797,92.010 175.934,90.800 177.176 C 87.474 180.591,74.047 194.619,72.000 196.818 C 68.068 201.041,55.848 213.748,49.727 219.977 C 42.262 227.574,43.269 227.302,38.589 222.992 L 35.800 220.425 37.425 218.912 C 39.415 217.060,43.359 213.691,55.800 203.214 C 64.425 195.952,73.014 188.673,75.341 186.655 C 75.814 186.246,77.010 185.256,78.000 184.455 C 78.990 183.655,79.890 182.901,80.000 182.780 C 80.110 182.659,82.000 181.042,84.200 179.186 C 86.400 177.330,88.290 175.718,88.400 175.605 C 88.788 175.203,96.649 168.506,100.548 165.255 C 104.507 161.954,106.369 161.112,103.389 163.970 M103.300 172.097 C 97.912 177.499,97.676 177.885,98.376 180.172 C 98.583 180.847,98.964 182.480,99.224 183.800 C 99.483 185.120,100.060 187.550,100.506 189.200 C 100.951 190.850,101.543 193.370,101.821 194.800 C 102.098 196.230,102.623 198.570,102.987 200.000 C 104.132 204.496,106.871 216.162,108.481 223.400 C 108.726 224.500,109.460 227.470,110.112 230.000 C 110.765 232.530,111.454 235.410,111.645 236.400 C 113.288 244.932,113.808 245.903,116.800 246.016 C 122.291 246.224,122.727 245.894,121.998 242.091 C 121.756 240.831,121.020 236.290,120.362 232.000 C 118.415 219.306,117.681 214.729,117.219 212.400 C 116.979 211.190,116.596 208.530,116.368 206.489 C 116.140 204.448,115.684 201.568,115.353 200.089 C 115.023 198.610,114.582 195.870,114.373 194.000 C 114.164 192.130,113.834 190.060,113.639 189.400 C 113.444 188.740,113.072 186.580,112.811 184.600 C 112.390 181.397,110.832 172.165,110.079 168.404 C 109.621 166.113,108.849 166.533,103.300 172.097 M109.350 168.700 C 109.463 169.085,109.667 170.300,109.805 171.400 C 109.942 172.500,110.219 174.300,110.420 175.400 C 110.825 177.617,111.483 181.725,113.014 191.600 C 113.577 195.230,114.381 200.360,114.800 203.000 C 121.285 243.826,121.367 244.393,120.896 244.864 C 120.636 245.124,119.400 245.174,117.542 245.000 L 114.600 244.724 113.275 239.062 C 112.546 235.948,111.780 232.770,111.573 232.000 C 111.366 231.230,110.756 228.710,110.218 226.400 C 109.680 224.090,108.618 219.590,107.859 216.400 C 107.100 213.210,106.354 209.970,106.202 209.200 C 106.049 208.430,105.209 204.920,104.335 201.400 C 103.460 197.880,102.499 193.830,102.198 192.400 C 101.898 190.970,101.101 187.493,100.426 184.673 C 98.702 177.465,98.473 178.256,103.874 172.758 C 108.789 167.755,109.024 167.581,109.350 168.700 M89.800 186.088 C 89.360 186.333,86.982 188.618,84.516 191.167 C 80.035 195.797,79.515 196.691,80.366 198.305 C 80.794 199.116,81.566 200.925,82.798 204.000 C 83.282 205.210,84.111 207.134,84.639 208.275 C 85.168 209.416,85.600 210.461,85.600 210.597 C 85.600 210.733,85.937 211.599,86.348 212.522 C 87.414 214.912,89.913 220.681,90.800 222.800 C 91.948 225.543,93.418 229.079,94.791 232.400 C 95.474 234.050,96.205 235.713,96.416 236.095 C 96.627 236.477,96.800 236.966,96.800 237.183 C 96.800 237.399,97.250 238.560,97.800 239.763 C 98.350 240.965,98.800 242.230,98.800 242.574 C 98.800 242.918,98.980 243.200,99.200 243.200 C 99.420 243.200,99.600 243.550,99.600 243.977 C 99.600 245.489,101.077 246.000,105.440 246.000 C 110.772 246.000,110.925 245.838,109.534 241.665 C 108.972 239.979,107.572 235.630,106.423 232.000 C 105.273 228.370,104.081 224.860,103.774 224.200 C 103.466 223.540,102.956 222.010,102.641 220.800 C 102.083 218.664,100.334 213.148,96.424 201.200 C 95.380 198.010,93.932 193.510,93.206 191.200 C 91.707 186.429,91.026 185.406,89.800 186.088 M91.355 188.900 C 91.697 189.835,92.457 192.130,93.044 194.000 C 93.631 195.870,95.711 202.260,97.666 208.200 C 99.621 214.140,101.403 219.720,101.625 220.600 C 101.848 221.480,102.279 222.830,102.583 223.600 C 103.147 225.027,106.777 236.231,108.391 241.525 C 109.429 244.931,109.478 244.827,106.725 245.070 C 100.855 245.589,101.821 246.855,94.175 228.600 C 91.595 222.440,88.866 215.960,88.112 214.200 C 87.357 212.440,86.497 210.370,86.200 209.600 C 85.709 208.328,84.011 204.339,82.197 200.200 C 80.492 196.310,80.330 196.753,85.286 191.730 C 90.322 186.626,90.495 186.546,91.355 188.900 M71.800 204.710 C 70.927 204.905,62.000 213.685,62.000 214.348 C 62.000 214.704,70.393 227.544,71.316 228.600 C 71.508 228.820,72.326 230.013,73.133 231.251 C 73.940 232.488,76.040 235.609,77.800 238.184 C 79.560 240.760,81.312 243.347,81.694 243.934 C 82.940 245.847,83.452 246.000,88.596 246.000 C 95.350 246.000,95.545 245.704,92.390 240.221 C 91.284 238.300,89.812 235.619,89.119 234.264 C 88.426 232.909,87.531 231.322,87.130 230.738 C 86.728 230.154,86.400 229.411,86.400 229.087 C 86.400 228.763,86.156 228.295,85.857 228.047 C 85.558 227.799,84.626 226.202,83.785 224.498 C 82.944 222.794,81.954 220.950,81.584 220.400 C 81.215 219.850,80.103 217.870,79.114 216.000 C 73.305 205.018,72.939 204.455,71.800 204.710 M73.707 208.100 C 74.467 209.475,75.496 211.320,75.994 212.200 C 76.493 213.080,77.804 215.510,78.909 217.600 C 80.760 221.103,83.542 226.166,84.404 227.600 C 84.602 227.930,86.055 230.630,87.633 233.600 C 89.210 236.570,91.222 240.221,92.104 241.713 C 94.187 245.240,94.326 245.182,84.594 244.842 C 83.497 244.804,83.019 244.248,79.314 238.700 C 77.073 235.345,73.948 230.710,72.370 228.400 C 70.792 226.090,68.585 222.850,67.466 221.200 C 66.347 219.550,64.916 217.527,64.286 216.704 C 62.769 214.725,62.769 214.725,67.483 209.836 C 72.294 204.846,71.961 204.939,73.707 208.100 M54.187 222.154 C 52.647 223.233,45.800 230.462,45.800 231.009 C 45.800 231.617,57.222 243.366,59.508 245.110 L 60.927 246.192 67.340 246.081 C 75.276 245.944,76.120 245.490,73.539 242.742 C 72.845 242.004,68.667 237.080,64.253 231.800 C 54.820 220.514,55.541 221.206,54.187 222.154 M58.036 225.871 C 59.446 227.560,61.335 229.765,62.234 230.771 C 63.133 231.777,65.113 234.140,66.634 236.023 C 68.155 237.905,70.365 240.594,71.545 241.997 C 74.212 245.171,74.222 245.165,66.284 245.034 L 60.450 244.938 53.625 238.190 C 49.871 234.478,46.800 231.303,46.800 231.135 C 46.800 230.666,54.599 222.800,55.064 222.800 C 55.289 222.800,56.626 224.182,58.036 225.871 " stroke="none" fill="#e5ca9b" fill-rule="evenodd"></path></g></svg>